<svg width="115" height="68" viewBox="0 0 115 68" fill="none" xmlns="http://www.w3.org/2000/svg">
<g filter="url(#filter0_d_39_2422)">
<path d="M12 18C12 13.5817 15.5817 10 20 10H95C99.4183 10 103 13.5817 103 18V46C103 50.4183 99.4183 54 95 54H20C15.5817 54 12 50.4183 12 46V18Z" fill="white"/>
<path d="M37.27 26.73L33.03 36.86L31.39 32.61L30.57 32.29L27.14 30.96L37.27 26.73ZM41 23L23 30.53V31.51L29.84 34.16L32.48 41H33.46L41 23Z" fill="#8D8D9C"/>
<path d="M48.69 26.62H53.895V27.925H48.69V26.62ZM48.84 30.88H53.745V32.185H48.84V30.88ZM48.375 36.16C48.845 36.05 49.385 35.915 49.995 35.755C50.605 35.595 51.25 35.42 51.93 35.23C52.62 35.04 53.3 34.85 53.97 34.66L54.165 35.92C53.225 36.2 52.275 36.48 51.315 36.76C50.355 37.04 49.495 37.295 48.735 37.525L48.375 36.16ZM55.875 29.995V31.255H60.36V29.995H55.875ZM55.875 32.35V33.625H60.36V32.35H55.875ZM55.875 27.625V28.885H60.36V27.625H55.875ZM54.54 26.455H61.74V34.81H54.54V26.455ZM58.41 34.255H59.775V37.99C59.775 38.19 59.795 38.315 59.835 38.365C59.885 38.415 59.99 38.44 60.15 38.44C60.19 38.44 60.27 38.44 60.39 38.44C60.52 38.44 60.65 38.44 60.78 38.44C60.92 38.44 61.02 38.44 61.08 38.44C61.18 38.44 61.255 38.4 61.305 38.32C61.365 38.24 61.405 38.075 61.425 37.825C61.455 37.575 61.475 37.195 61.485 36.685C61.585 36.755 61.705 36.825 61.845 36.895C61.985 36.965 62.13 37.03 62.28 37.09C62.43 37.14 62.565 37.18 62.685 37.21C62.645 37.86 62.575 38.36 62.475 38.71C62.375 39.07 62.225 39.32 62.025 39.46C61.825 39.6 61.56 39.67 61.23 39.67C61.17 39.67 61.08 39.67 60.96 39.67C60.84 39.67 60.71 39.67 60.57 39.67C60.43 39.67 60.3 39.67 60.18 39.67C60.06 39.67 59.97 39.67 59.91 39.67C59.5 39.67 59.185 39.62 58.965 39.52C58.755 39.42 58.61 39.245 58.53 38.995C58.45 38.755 58.41 38.42 58.41 37.99V34.255ZM55.815 34.57H57.21C57.14 35.21 57.03 35.8 56.88 36.34C56.74 36.88 56.52 37.37 56.22 37.81C55.93 38.25 55.53 38.64 55.02 38.98C54.51 39.32 53.86 39.615 53.07 39.865C53.02 39.745 52.95 39.61 52.86 39.46C52.78 39.32 52.685 39.18 52.575 39.04C52.475 38.9 52.375 38.785 52.275 38.695C52.975 38.505 53.545 38.28 53.985 38.02C54.425 37.76 54.765 37.46 55.005 37.12C55.255 36.77 55.44 36.385 55.56 35.965C55.68 35.535 55.765 35.07 55.815 34.57ZM50.655 27.145H52.02V35.965L50.655 36.19V27.145ZM63.885 28.06H77.13V29.425H63.885V28.06ZM68.64 32.86H76.53V34.165H68.64V32.86ZM68.055 38.08H77.115V39.4H68.055V38.08ZM71.895 30.13H73.32V38.785H71.895V30.13ZM68.73 25.825L70.215 26.185C69.855 27.355 69.4 28.515 68.85 29.665C68.31 30.805 67.655 31.87 66.885 32.86C66.115 33.84 65.215 34.695 64.185 35.425C64.135 35.285 64.065 35.135 63.975 34.975C63.895 34.815 63.81 34.655 63.72 34.495C63.63 34.325 63.55 34.185 63.48 34.075C64.16 33.615 64.775 33.075 65.325 32.455C65.885 31.825 66.38 31.145 66.81 30.415C67.25 29.685 67.63 28.93 67.95 28.15C68.27 27.37 68.53 26.595 68.73 25.825ZM65.76 32.065H67.185V39.715H65.76V32.065ZM87.42 25.84H88.755V36.34H87.42V25.84ZM82.815 31.96L90.765 28.6L91.29 29.8L83.355 33.22L82.815 31.96ZM84.375 27.265H85.74V37.165C85.74 37.445 85.765 37.66 85.815 37.81C85.865 37.95 85.97 38.045 86.13 38.095C86.3 38.145 86.545 38.17 86.865 38.17C86.955 38.17 87.11 38.17 87.33 38.17C87.55 38.17 87.795 38.17 88.065 38.17C88.345 38.17 88.625 38.17 88.905 38.17C89.185 38.17 89.44 38.17 89.67 38.17C89.9 38.17 90.07 38.17 90.18 38.17C90.46 38.17 90.67 38.115 90.81 38.005C90.96 37.895 91.07 37.695 91.14 37.405C91.21 37.115 91.26 36.695 91.29 36.145C91.45 36.255 91.65 36.36 91.89 36.46C92.14 36.56 92.36 36.63 92.55 36.67C92.49 37.37 92.385 37.92 92.235 38.32C92.085 38.72 91.855 39.005 91.545 39.175C91.245 39.355 90.82 39.445 90.27 39.445C90.18 39.445 90.015 39.445 89.775 39.445C89.545 39.445 89.275 39.445 88.965 39.445C88.665 39.445 88.36 39.445 88.05 39.445C87.75 39.445 87.485 39.445 87.255 39.445C87.025 39.445 86.865 39.445 86.775 39.445C86.165 39.445 85.68 39.38 85.32 39.25C84.97 39.12 84.725 38.885 84.585 38.545C84.445 38.215 84.375 37.75 84.375 37.15V27.265ZM90.495 28.765H90.375L90.66 28.54L90.915 28.345L91.92 28.72L91.86 28.96C91.86 29.67 91.855 30.33 91.845 30.94C91.845 31.54 91.84 32.08 91.83 32.56C91.82 33.03 91.805 33.43 91.785 33.76C91.775 34.08 91.755 34.315 91.725 34.465C91.695 34.785 91.61 35.03 91.47 35.2C91.34 35.37 91.16 35.49 90.93 35.56C90.73 35.64 90.49 35.69 90.21 35.71C89.93 35.72 89.68 35.725 89.46 35.725C89.44 35.535 89.4 35.325 89.34 35.095C89.28 34.855 89.215 34.66 89.145 34.51C89.295 34.52 89.46 34.525 89.64 34.525C89.82 34.525 89.945 34.525 90.015 34.525C90.125 34.525 90.21 34.505 90.27 34.465C90.34 34.415 90.39 34.315 90.42 34.165C90.44 34.075 90.455 33.89 90.465 33.61C90.475 33.33 90.48 32.965 90.48 32.515C90.49 32.055 90.495 31.51 90.495 30.88C90.495 30.25 90.495 29.545 90.495 28.765ZM78.57 29.395H83.43V30.73H78.57V29.395ZM80.43 26.02H81.765V35.86H80.43V26.02ZM78.42 36.07C78.82 35.92 79.285 35.74 79.815 35.53C80.355 35.31 80.925 35.075 81.525 34.825C82.135 34.575 82.74 34.325 83.34 34.075L83.655 35.335C82.855 35.715 82.045 36.095 81.225 36.475C80.405 36.855 79.655 37.195 78.975 37.495L78.42 36.07Z" fill="#747484"/>
</g>
<defs>
<filter id="filter0_d_39_2422" x="0.571429" y="0.857143" width="113.857" height="66.8571" filterUnits="userSpaceOnUse" color-interpolation-filters="sRGB">
<feFlood flood-opacity="0" result="BackgroundImageFix"/>
<feColorMatrix in="SourceAlpha" type="matrix" values="0 0 0 0 0 0 0 0 0 0 0 0 0 0 0 0 0 0 127 0" result="hardAlpha"/>
<feOffset dy="2.28571"/>
<feGaussianBlur stdDeviation="5.71429"/>
<feComposite in2="hardAlpha" operator="out"/>
<feColorMatrix type="matrix" values="0 0 0 0 0 0 0 0 0 0 0 0 0 0 0 0 0 0 0.14 0"/>
<feBlend mode="normal" in2="BackgroundImageFix" result="effect1_dropShadow_39_2422"/>
<feBlend mode="normal" in="SourceGraphic" in2="effect1_dropShadow_39_2422" result="shape"/>
</filter>
</defs>
</svg>
