<svg width="115" height="68" viewBox="0 0 115 68" fill="none" xmlns="http://www.w3.org/2000/svg">
<g filter="url(#filter0_d_39_2428)">
<path d="M12 18C12 13.5817 15.5817 10 20 10H95C99.4183 10 103 13.5817 103 18V46C103 50.4183 99.4183 54 95 54H20C15.5817 54 12 50.4183 12 46V18Z" fill="white"/>
<g clip-path="url(#clip0_39_2428)">
<path d="M38.7092 38.9142H38.7033V23.6166C38.7033 23.2899 38.4384 23.025 38.1117 23.025H26.3883C26.0616 23.025 25.7966 23.2899 25.7966 23.6166V38.9142H23.9224L23.9109 38.914V38.9142H23.9051V41.4614V41.4691V41.475H40.5948V38.9142H38.7092ZM36.7177 29.0336H35.2284V26.1378H36.7177V29.0336ZM36.7177 33.1019H35.2284V30.2062H36.7177V33.1019ZM35.2284 35.9007V34.701H36.7177V35.9007H35.2318H35.2284ZM33.491 26.1378V29.0336H31.0108H31.009V26.1378H33.4892H33.491ZM31.009 33.1019V30.2062H33.491V33.1019H31.0108H31.009ZM33.491 34.701V39.903H31.009V34.701H33.491ZM27.7823 35.9007V34.701H29.2715V35.9007H27.7856H27.7823ZM29.2715 33.1019H27.7823V30.2062H29.2715V33.0988V33.1019ZM29.2715 29.0336H27.7823V26.1378H29.2715V29.0305V29.0336Z" fill="#8D8D9C"/>
</g>
<path d="M54.645 34.645H57.54V35.62H54.645V34.645ZM53.76 27.28H58.425V28.345H53.76V27.28ZM53.385 30.58H62.475V31.72H53.385V30.58ZM54.915 32.515H58.17V37.78H54.915V36.775H57.03V33.52H54.915V32.515ZM54.075 32.515H55.185V38.695H54.075V32.515ZM55.455 25.87H56.67V28.03H55.455V25.87ZM61.02 32.38L62.19 32.635C61.76 34.215 61.145 35.605 60.345 36.805C59.555 38.005 58.605 38.995 57.495 39.775C57.445 39.695 57.37 39.595 57.27 39.475C57.17 39.365 57.06 39.25 56.94 39.13C56.83 39.01 56.735 38.91 56.655 38.83C57.745 38.17 58.655 37.29 59.385 36.19C60.115 35.08 60.66 33.81 61.02 32.38ZM54.15 28.6L55.08 28.375C55.21 28.695 55.315 29.045 55.395 29.425C55.485 29.795 55.54 30.12 55.56 30.4L54.555 30.64C54.555 30.37 54.515 30.045 54.435 29.665C54.355 29.285 54.26 28.93 54.15 28.6ZM60.03 26.92L60.975 26.425C61.295 26.795 61.595 27.21 61.875 27.67C62.165 28.12 62.38 28.515 62.52 28.855L61.515 29.41C61.385 29.07 61.18 28.665 60.9 28.195C60.63 27.715 60.34 27.29 60.03 26.92ZM56.925 28.36L58.035 28.6C57.915 28.95 57.795 29.31 57.675 29.68C57.565 30.04 57.46 30.345 57.36 30.595L56.46 30.385C56.54 30.105 56.625 29.775 56.715 29.395C56.815 29.005 56.885 28.66 56.925 28.36ZM48.705 26.455H53.79V27.715H48.705V26.455ZM49.935 29.62H52.62V30.79H49.935V29.62ZM49.935 32.71H52.62V33.88H49.935V32.71ZM49.365 27.115H50.55V36.625H49.365V27.115ZM51.9 27.1H53.1V39.76H51.9V27.1ZM48.435 36.4C48.965 36.32 49.59 36.215 50.31 36.085C51.04 35.945 51.785 35.8 52.545 35.65L52.65 36.865C51.95 37.015 51.255 37.165 50.565 37.315C49.885 37.455 49.255 37.585 48.675 37.705L48.435 36.4ZM58.725 25.855H59.985C59.985 27.165 60 28.425 60.03 29.635C60.07 30.835 60.12 31.95 60.18 32.98C60.25 34 60.335 34.895 60.435 35.665C60.545 36.425 60.665 37.02 60.795 37.45C60.935 37.88 61.085 38.095 61.245 38.095C61.355 38.095 61.445 37.915 61.515 37.555C61.595 37.185 61.655 36.67 61.695 36.01C61.765 36.1 61.86 36.2 61.98 36.31C62.1 36.41 62.22 36.505 62.34 36.595C62.47 36.675 62.565 36.735 62.625 36.775C62.525 37.565 62.39 38.175 62.22 38.605C62.06 39.035 61.89 39.33 61.71 39.49C61.54 39.66 61.37 39.745 61.2 39.745C60.8 39.735 60.46 39.505 60.18 39.055C59.9 38.605 59.665 37.97 59.475 37.15C59.295 36.32 59.155 35.33 59.055 34.18C58.955 33.03 58.88 31.755 58.83 30.355C58.78 28.945 58.745 27.445 58.725 25.855ZM68.01 31.945H77.475V33.16H68.01V31.945ZM69.675 34.06H76.05V35.2H69.675V34.06ZM70.335 32.395L71.565 32.71C71.185 33.56 70.675 34.34 70.035 35.05C69.405 35.76 68.735 36.35 68.025 36.82C67.965 36.74 67.875 36.645 67.755 36.535C67.635 36.425 67.515 36.315 67.395 36.205C67.275 36.095 67.165 36.01 67.065 35.95C67.765 35.55 68.405 35.04 68.985 34.42C69.565 33.8 70.015 33.125 70.335 32.395ZM75.81 34.06H77.13C77.13 34.06 77.125 34.13 77.115 34.27C77.115 34.4 77.11 34.51 77.1 34.6C77.03 35.6 76.95 36.42 76.86 37.06C76.78 37.69 76.69 38.175 76.59 38.515C76.49 38.865 76.37 39.115 76.23 39.265C76.09 39.415 75.945 39.52 75.795 39.58C75.655 39.64 75.49 39.68 75.3 39.7C75.13 39.71 74.91 39.715 74.64 39.715C74.38 39.725 74.1 39.725 73.8 39.715C73.79 39.535 73.755 39.335 73.695 39.115C73.645 38.895 73.57 38.715 73.47 38.575C73.73 38.595 73.965 38.605 74.175 38.605C74.395 38.615 74.56 38.62 74.67 38.62C74.77 38.62 74.855 38.61 74.925 38.59C74.995 38.57 75.055 38.525 75.105 38.455C75.205 38.355 75.295 38.16 75.375 37.87C75.455 37.57 75.53 37.13 75.6 36.55C75.68 35.97 75.75 35.21 75.81 34.27V34.06ZM70.68 29.215V30.205H75.105V29.215H70.68ZM70.68 27.265V28.255H75.105V27.265H70.68ZM69.405 26.26H76.41V31.225H69.405V26.26ZM63.735 29.05H68.25V30.4H63.735V29.05ZM65.385 25.99H66.72V35.26H65.385V25.99ZM63.435 35.725C63.815 35.575 64.26 35.395 64.77 35.185C65.28 34.965 65.82 34.73 66.39 34.48C66.96 34.22 67.53 33.965 68.1 33.715L68.415 34.945C67.655 35.325 66.885 35.71 66.105 36.1C65.325 36.49 64.615 36.84 63.975 37.15L63.435 35.725ZM73.98 34.3L74.955 34.825C74.765 35.445 74.505 36.075 74.175 36.715C73.855 37.345 73.49 37.935 73.08 38.485C72.67 39.025 72.235 39.47 71.775 39.82C71.655 39.69 71.5 39.55 71.31 39.4C71.12 39.25 70.935 39.125 70.755 39.025C71.225 38.715 71.67 38.305 72.09 37.795C72.52 37.285 72.895 36.725 73.215 36.115C73.545 35.505 73.8 34.9 73.98 34.3ZM71.67 34.315L72.615 34.87C72.355 35.41 72.02 35.95 71.61 36.49C71.21 37.03 70.765 37.535 70.275 38.005C69.795 38.465 69.315 38.85 68.835 39.16C68.725 39.02 68.58 38.87 68.4 38.71C68.23 38.55 68.06 38.415 67.89 38.305C68.39 38.045 68.88 37.7 69.36 37.27C69.85 36.84 70.295 36.37 70.695 35.86C71.095 35.34 71.42 34.825 71.67 34.315Z" fill="#747484"/>
</g>
<defs>
<filter id="filter0_d_39_2428" x="0.571429" y="0.857143" width="113.857" height="66.8571" filterUnits="userSpaceOnUse" color-interpolation-filters="sRGB">
<feFlood flood-opacity="0" result="BackgroundImageFix"/>
<feColorMatrix in="SourceAlpha" type="matrix" values="0 0 0 0 0 0 0 0 0 0 0 0 0 0 0 0 0 0 127 0" result="hardAlpha"/>
<feOffset dy="2.28571"/>
<feGaussianBlur stdDeviation="5.71429"/>
<feComposite in2="hardAlpha" operator="out"/>
<feColorMatrix type="matrix" values="0 0 0 0 0 0 0 0 0 0 0 0 0 0 0 0 0 0 0.14 0"/>
<feBlend mode="normal" in2="BackgroundImageFix" result="effect1_dropShadow_39_2428"/>
<feBlend mode="normal" in="SourceGraphic" in2="effect1_dropShadow_39_2428" result="shape"/>
</filter>
<clipPath id="clip0_39_2428">
<rect width="18.45" height="18.45" fill="white" transform="translate(23.0248 23.025)"/>
</clipPath>
</defs>
</svg>
