<svg width="101" height="40" viewBox="0 0 101 40" fill="none" xmlns="http://www.w3.org/2000/svg">
<g filter="url(#filter0_d_20_8396)">
<rect x="4" y="4" width="93" height="32" rx="16" fill="white" shape-rendering="crispEdges"/>
<rect x="4" y="4" width="93" height="32" rx="16" fill="#D54F4F" fill-opacity="0.1" shape-rendering="crispEdges"/>
<g clip-path="url(#clip0_20_8396)">
<path d="M26.1038 10C25.4536 10 22.7588 10 22.7588 10V11.9516C22.7588 11.9516 24.6175 11.9516 26.5687 11.9516C30.1929 11.9516 31.1218 13.7166 31.1218 13.7166C31.1218 13.7166 31.1218 13.7166 31.7721 13.2521C30.6573 10.3716 26.7549 10 26.1038 10Z" fill="#D54F4F"/>
<path d="M18.5573 25.051L18.228 26.7122H20.4955L20.1662 25.051H18.5573Z" fill="#D54F4F"/>
<path d="M25.7014 14.7285V13.0973C25.7014 12.7659 25.4327 12.4973 25.1004 12.4973H23.9799C23.6472 12.4973 23.379 12.7659 23.379 13.0973V14.7603C21.9713 15.2573 20.962 16.5997 20.962 18.1773V29.6066C20.962 30.3762 21.5872 31 22.3563 31H26.8169C27.5868 31 28.2103 30.3761 28.2103 29.6066V18.1773C28.2103 16.5646 27.1575 15.1988 25.7014 14.7285ZM26.5144 26.6792H22.658V21.9659H26.5144V26.6792Z" fill="#D54F4F"/>
<path d="M19.7916 18.2412C19.7911 16.6544 20.6046 15.1999 21.8938 14.3555L21.898 14.3526L21.8984 14.353C21.9051 14.3467 22.1645 14.1835 22.5758 14.0437V13.1496C21.8954 13.3328 21.4657 13.6124 21.4243 13.6387C21.4238 13.6391 21.4238 13.6391 21.4238 13.6391C21.423 13.6395 21.4188 13.642 21.4184 13.6425L21.4188 13.6429C19.8945 14.6438 18.9349 16.3623 18.9346 18.2412V24.7563H19.7916V18.2412ZM21.9047 14.3484L21.8997 14.3521L21.8992 14.3517L21.9047 14.3484Z" fill="#D54F4F"/>
</g>
<path d="M46.848 19.968H53.696V21.008H46.848V19.968ZM46.8 22.752H53.696V23.776H46.8V22.752ZM53.808 13.008L54.96 13.456C54.6827 13.9893 54.3787 14.5333 54.048 15.088C53.728 15.632 53.424 16.096 53.136 16.48L52.112 16.048C52.304 15.7707 52.5013 15.4613 52.704 15.12C52.9173 14.768 53.12 14.4053 53.312 14.032C53.5147 13.6587 53.68 13.3173 53.808 13.008ZM45.616 13.552L46.624 13.088C46.8587 13.3867 47.088 13.712 47.312 14.064C47.536 14.416 47.7333 14.7627 47.904 15.104C48.0853 15.4453 48.2187 15.7547 48.304 16.032L47.232 16.56C47.1573 16.2933 47.0347 15.984 46.864 15.632C46.6933 15.28 46.5013 14.9227 46.288 14.56C46.0747 14.1973 45.8507 13.8613 45.616 13.552ZM46.064 17.12H53.744V18.256H47.248V27.28H46.064V17.12ZM53.152 17.12H54.32V25.776C54.32 26.1067 54.2773 26.3627 54.192 26.544C54.1067 26.736 53.9467 26.8853 53.712 26.992C53.4667 27.088 53.136 27.1413 52.72 27.152C52.3147 27.1733 51.808 27.184 51.2 27.184C51.1787 27.0347 51.1307 26.848 51.056 26.624C50.9813 26.4 50.9013 26.208 50.816 26.048C51.2747 26.0587 51.6907 26.064 52.064 26.064C52.448 26.0747 52.704 26.0747 52.832 26.064C53.0453 26.0533 53.152 25.952 53.152 25.76V17.12ZM49.664 12.544H50.864V17.824H49.664V12.544ZM41.36 13.552L42.08 12.736C42.4107 12.896 42.752 13.0827 43.104 13.296C43.456 13.5093 43.7867 13.728 44.096 13.952C44.416 14.176 44.672 14.384 44.864 14.576L44.128 15.504C43.936 15.3013 43.6853 15.088 43.376 14.864C43.0773 14.6293 42.7467 14.3947 42.384 14.16C42.032 13.9253 41.6907 13.7227 41.36 13.552ZM40.608 17.84L41.296 16.992C41.6373 17.1413 41.9893 17.3227 42.352 17.536C42.7147 17.7493 43.056 17.968 43.376 18.192C43.7067 18.416 43.968 18.624 44.16 18.816L43.456 19.76C43.2533 19.5573 42.992 19.344 42.672 19.12C42.352 18.8853 42.0107 18.656 41.648 18.432C41.296 18.208 40.9493 18.0107 40.608 17.84ZM41.104 26.336C41.3707 25.92 41.6587 25.424 41.968 24.848C42.288 24.272 42.608 23.664 42.928 23.024C43.2587 22.384 43.5573 21.76 43.824 21.152L44.72 21.872C44.4747 22.4373 44.208 23.0293 43.92 23.648C43.632 24.2667 43.3333 24.8747 43.024 25.472C42.7253 26.0587 42.432 26.608 42.144 27.12L41.104 26.336ZM59.536 15.808L60.736 16.064C60.64 16.6933 60.5067 17.3227 60.336 17.952C60.1653 18.5707 59.9307 19.1467 59.632 19.68C59.344 20.2027 58.96 20.6453 58.48 21.008L57.44 20.304C57.8773 19.984 58.2347 19.584 58.512 19.104C58.7893 18.624 59.008 18.1013 59.168 17.536C59.3387 16.9707 59.4613 16.3947 59.536 15.808ZM69.584 15.776L70.88 16.288C70.624 16.7893 70.3413 17.312 70.032 17.856C69.7333 18.4 69.4293 18.928 69.12 19.44C68.8213 19.9413 68.5333 20.384 68.256 20.768L67.248 20.288C67.5147 19.8933 67.792 19.4347 68.08 18.912C68.3787 18.3893 68.656 17.856 68.912 17.312C69.1787 16.7573 69.4027 16.2453 69.584 15.776ZM64.256 12.784H64.896V17.968C64.896 18.2773 64.9333 18.6507 65.008 19.088C65.0827 19.5147 65.2107 19.984 65.392 20.496C65.5733 20.9973 65.824 21.5147 66.144 22.048C66.4747 22.5707 66.8853 23.088 67.376 23.6C67.8667 24.112 68.4587 24.592 69.152 25.04C69.8453 25.4773 70.656 25.8613 71.584 26.192C71.4987 26.2773 71.4027 26.384 71.296 26.512C71.2 26.6507 71.104 26.7893 71.008 26.928C70.912 27.0667 70.832 27.1893 70.768 27.296C69.84 26.944 69.0293 26.528 68.336 26.048C67.6427 25.568 67.0507 25.0613 66.56 24.528C66.0693 23.9947 65.664 23.4613 65.344 22.928C65.024 22.3947 64.7787 21.8987 64.608 21.44C64.4373 20.9813 64.3147 20.6027 64.24 20.304C64.176 20.6133 64.0587 20.992 63.888 21.44C63.728 21.888 63.4933 22.3733 63.184 22.896C62.8853 23.4187 62.496 23.9467 62.016 24.48C61.5467 25.0133 60.9707 25.52 60.288 26C59.616 26.4907 58.8267 26.9227 57.92 27.296C57.8773 27.2107 57.8027 27.104 57.696 26.976C57.6 26.8587 57.4987 26.736 57.392 26.608C57.2853 26.48 57.1893 26.3733 57.104 26.288C58.1813 25.8827 59.0933 25.3973 59.84 24.832C60.5973 24.256 61.2213 23.6533 61.712 23.024C62.2027 22.384 62.5867 21.7493 62.864 21.12C63.1413 20.4907 63.3333 19.904 63.44 19.36C63.5467 18.816 63.6 18.3573 63.6 17.984V12.784H64.256ZM75.68 14.24V16.704H78.624V14.24H75.68ZM74.576 13.264H79.776V17.68H74.576V13.264ZM82.64 14.24V16.704H85.616V14.24H82.64ZM81.536 13.264H86.768V17.68H81.536V13.264ZM73.472 18.896H87.824V19.984H73.472V18.896ZM75.36 25.68H79.264V26.704H75.36V25.68ZM81.952 25.68H85.872V26.704H81.952V25.68ZM82.656 19.2C83.0293 19.68 83.5093 20.1333 84.096 20.56C84.6827 20.9867 85.3387 21.3653 86.064 21.696C86.8 22.016 87.5413 22.2667 88.288 22.448C88.2027 22.5227 88.112 22.6187 88.016 22.736C87.92 22.8427 87.8293 22.96 87.744 23.088C87.6587 23.2053 87.584 23.312 87.52 23.408C86.7413 23.184 85.9787 22.8907 85.232 22.528C84.4853 22.1547 83.7973 21.7227 83.168 21.232C82.5387 20.7307 82.0053 20.192 81.568 19.616L82.656 19.2ZM74.816 22.096H79.872V27.264H78.768V23.12H75.888V27.312H74.816V22.096ZM81.376 22.096H86.496V27.264H85.376V23.12H82.448V27.312H81.376V22.096ZM79.856 17.248L81.024 17.616C80.3947 19.0027 79.4507 20.1707 78.192 21.12C76.944 22.0693 75.4827 22.8373 73.808 23.424C73.7653 23.3387 73.7013 23.2427 73.616 23.136C73.5307 23.0187 73.44 22.9013 73.344 22.784C73.248 22.6667 73.1573 22.576 73.072 22.512C74.6827 21.9787 76.08 21.2747 77.264 20.4C78.4587 19.5253 79.3227 18.4747 79.856 17.248Z" fill="#D54F4F"/>
</g>
<defs>
<filter id="filter0_d_20_8396" x="0" y="0" width="101" height="40" filterUnits="userSpaceOnUse" color-interpolation-filters="sRGB">
<feFlood flood-opacity="0" result="BackgroundImageFix"/>
<feColorMatrix in="SourceAlpha" type="matrix" values="0 0 0 0 0 0 0 0 0 0 0 0 0 0 0 0 0 0 127 0" result="hardAlpha"/>
<feOffset/>
<feGaussianBlur stdDeviation="2"/>
<feComposite in2="hardAlpha" operator="out"/>
<feColorMatrix type="matrix" values="0 0 0 0 0 0 0 0 0 0 0 0 0 0 0 0 0 0 0.16 0"/>
<feBlend mode="normal" in2="BackgroundImageFix" result="effect1_dropShadow_20_8396"/>
<feBlend mode="normal" in="SourceGraphic" in2="effect1_dropShadow_20_8396" result="shape"/>
</filter>
<clipPath id="clip0_20_8396">
<rect width="21" height="21" fill="white" transform="translate(13.5 10)"/>
</clipPath>
</defs>
</svg>
