<svg width="101" height="40" viewBox="0 0 101 40" fill="none" xmlns="http://www.w3.org/2000/svg">
<g filter="url(#filter0_d_20_8400)">
<rect x="4" y="4" width="93" height="32" rx="16" fill="white" shape-rendering="crispEdges"/>
<rect x="4" y="4" width="93" height="32" rx="16" fill="#1CA678" fill-opacity="0.05" shape-rendering="crispEdges"/>
<path d="M23.9998 9L14 14.3507V31.0926H34V14.3507L23.9998 9ZM20.6906 15.6925C20.7309 14.9208 21.3673 14.3162 22.1394 14.3162C22.165 14.3162 22.1909 14.317 22.2169 14.3181C23.0165 14.36 23.6331 15.0448 23.5913 15.8444C23.551 16.6161 22.9146 17.2208 22.1425 17.2208C22.1169 17.2208 22.0909 17.22 22.065 17.2188C21.6774 17.1987 21.3212 17.0285 21.0615 16.7402C20.8018 16.4518 20.67 16.0797 20.6906 15.6925ZM20.2386 28.9671C20.0914 29.126 19.8917 29.2128 19.6762 29.2128C19.4825 29.2128 19.2972 29.1399 19.1553 29.0081C18.865 28.7388 18.8301 28.2833 19.0759 27.9709L23.5723 22.292L22.7754 20.3792L21.546 21.4292C21.4382 21.5215 21.2995 21.5722 21.1561 21.5722C21.1332 21.5722 21.1099 21.5711 21.0875 21.5684L18.396 21.2505C18.2395 21.2319 18.0995 21.1536 18.0019 21.03C17.9042 20.9064 17.8608 20.7521 17.879 20.5955C17.9135 20.3021 18.1623 20.0781 18.4573 20.0746L20.758 20.0451L21.9836 18.5924C22.5878 17.8723 23.2107 17.5227 23.8882 17.5227C23.9242 17.5227 23.9607 17.5239 23.9971 17.5254L25.1219 17.5886L26.9606 17.6952C27.187 17.7084 27.3978 17.8312 27.5242 18.0239L28.9784 20.2723C29.1846 20.5909 29.0927 21.018 28.7741 21.2238C28.6633 21.2955 28.535 21.3335 28.4028 21.3335C28.1869 21.3335 27.9807 21.2315 27.8509 21.0606L26.4757 19.2405L25.3955 19.1777L26.1005 22.1753C26.0513 22.5245 25.8982 22.7765 25.668 23.0672C25.2719 23.5683 24.7126 24.2028 24.3138 24.6466L20.2386 28.9671ZM30.1241 26.2791C30.1043 26.6535 29.8055 26.9512 29.4295 26.9717L26.3719 27.1276C26.3579 27.1283 26.3443 27.1287 26.3304 27.1287C26.0346 27.1287 25.7649 26.9659 25.6265 26.7035L25.5405 26.5392L24.8552 25.2334C25.232 24.8164 25.8668 24.1013 26.3172 23.5315C26.3529 23.4862 26.3866 23.4424 26.418 23.3993L27.042 25.3811L29.4307 25.5082C29.8342 25.5295 30.1454 25.8756 30.1241 26.2791Z" fill="#12A364"/>
<path d="M43.552 18.88V24.528H42.464V19.968H40.688V18.88H43.552ZM43.552 24.096C43.9467 24.6933 44.5013 25.1413 45.216 25.44C45.9307 25.728 46.7627 25.888 47.712 25.92C48.1707 25.9413 48.7307 25.9573 49.392 25.968C50.064 25.968 50.768 25.9627 51.504 25.952C52.2507 25.9413 52.9653 25.9253 53.648 25.904C54.3307 25.8827 54.9227 25.856 55.424 25.824C55.3813 25.9093 55.3333 26.016 55.28 26.144C55.2267 26.2827 55.1787 26.4213 55.136 26.56C55.0933 26.6987 55.0613 26.8267 55.04 26.944C54.5813 26.9653 54.032 26.9813 53.392 26.992C52.752 27.0027 52.0853 27.008 51.392 27.008C50.6987 27.0187 50.032 27.0187 49.392 27.008C48.752 27.008 48.1973 26.9973 47.728 26.976C46.6613 26.9333 45.744 26.7627 44.976 26.464C44.2187 26.1653 43.5893 25.7013 43.088 25.072C42.7787 25.4133 42.4587 25.7547 42.128 26.096C41.7973 26.448 41.4613 26.8053 41.12 27.168L40.496 26.064C40.8267 25.7973 41.1733 25.4933 41.536 25.152C41.8987 24.8 42.2453 24.448 42.576 24.096H43.552ZM40.768 13.536L41.728 12.96C42.016 13.2373 42.304 13.5413 42.592 13.872C42.88 14.192 43.1413 14.5173 43.376 14.848C43.6107 15.1787 43.7867 15.4827 43.904 15.76L42.88 16.368C42.7627 16.1013 42.592 15.8027 42.368 15.472C42.144 15.1307 41.8933 14.7947 41.616 14.464C41.3387 14.1227 41.056 13.8133 40.768 13.536ZM44.976 13.296H46.016V16.048C46.016 16.592 45.9947 17.1893 45.952 17.84C45.9093 18.48 45.824 19.1413 45.696 19.824C45.568 20.5067 45.392 21.1787 45.168 21.84C44.944 22.4907 44.6453 23.0933 44.272 23.648C44.2293 23.5733 44.1547 23.488 44.048 23.392C43.952 23.2853 43.8507 23.1893 43.744 23.104C43.648 23.008 43.5627 22.9387 43.488 22.896C43.936 22.2027 44.2613 21.4507 44.464 20.64C44.6773 19.8293 44.816 19.024 44.88 18.224C44.944 17.424 44.976 16.6933 44.976 16.032V13.296ZM45.568 13.296H49.072V17.712H45.568V16.752H48.032V14.256H45.568V13.296ZM45.984 19.392H49.296V24.048H45.984V23.088H48.256V20.352H45.984V19.392ZM45.456 19.392H46.464V24.896H45.456V19.392ZM49.632 14.528H55.056V15.52H49.632V14.528ZM49.696 21.072H55.008V22.064H49.696V21.072ZM49.488 18.272H55.184V19.28H49.488V18.272ZM51.792 12.56H52.896V15.056H51.792V12.56ZM51.792 18.608H52.896V25.088H51.792V18.608ZM50.336 15.792L51.2 15.6C51.3707 15.984 51.5147 16.4053 51.632 16.864C51.7493 17.312 51.8133 17.696 51.824 18.016L50.896 18.24C50.8747 17.9093 50.8107 17.52 50.704 17.072C50.608 16.6133 50.4853 16.1867 50.336 15.792ZM53.504 15.536L54.512 15.776C54.3733 16.2133 54.2293 16.6613 54.08 17.12C53.9307 17.568 53.7867 17.952 53.648 18.272L52.832 18.048C52.9067 17.824 52.9867 17.5627 53.072 17.264C53.168 16.9653 53.2533 16.6667 53.328 16.368C53.4027 16.0587 53.4613 15.7813 53.504 15.536ZM57.536 20.8H63.856V21.728H57.536V20.8ZM56.992 22.816H64.24V23.792H56.992V22.816ZM57.072 14.048H64.272V15.024H57.072V14.048ZM58.624 12.56H59.68V16.096H58.624V12.56ZM61.696 12.56H62.752V16.096H61.696V12.56ZM60.112 16.752H61.12V19.408H60.112V16.752ZM58.464 17.296V18.944H62.8V17.296H58.464ZM57.504 16.448H63.808V19.808H57.504V16.448ZM60.656 23.824C60.816 23.9093 61.0507 24.0587 61.36 24.272C61.6693 24.4747 62 24.6987 62.352 24.944C62.7147 25.1787 63.0453 25.4027 63.344 25.616C63.6427 25.8293 63.8613 25.984 64 26.08L63.28 27.072C63.1093 26.912 62.88 26.7147 62.592 26.48C62.304 26.2453 61.9947 26 61.664 25.744C61.3333 25.488 61.0187 25.248 60.72 25.024C60.4213 24.7893 60.1707 24.6027 59.968 24.464L60.656 23.824ZM60.064 19.264H61.184V22C61.184 22.448 61.1413 22.912 61.056 23.392C60.9707 23.872 60.8053 24.3467 60.56 24.816C60.3253 25.2853 59.968 25.7333 59.488 26.16C59.0187 26.5973 58.3893 26.9867 57.6 27.328C57.5147 27.2107 57.3973 27.0667 57.248 26.896C57.1093 26.736 56.976 26.6027 56.848 26.496C57.5733 26.2187 58.1493 25.8933 58.576 25.52C59.0027 25.1467 59.3227 24.7573 59.536 24.352C59.7493 23.936 59.888 23.5253 59.952 23.12C60.0267 22.7147 60.064 22.336 60.064 21.984V19.264ZM65.408 18.864H71.44V19.904H65.408V18.864ZM65.408 22.08H71.44V23.12H65.408V22.08ZM65.376 25.344H71.728V26.448H65.376V25.344ZM66.112 12.56L67.216 12.816C67.0133 13.6053 66.768 14.384 66.48 15.152C66.192 15.92 65.8773 16.6453 65.536 17.328C65.2053 18 64.8533 18.5973 64.48 19.12C64.416 19.056 64.3253 18.976 64.208 18.88C64.1013 18.784 63.9893 18.688 63.872 18.592C63.7547 18.496 63.6533 18.4213 63.568 18.368C63.9307 17.888 64.2667 17.3387 64.576 16.72C64.896 16.0907 65.184 15.424 65.44 14.72C65.7067 14.0053 65.9307 13.2853 66.112 12.56ZM69.088 12.72L70.24 13.008C70.0373 13.5733 69.8133 14.1547 69.568 14.752C69.3227 15.3493 69.088 15.856 68.864 16.272L67.888 16C68.0373 15.712 68.1867 15.376 68.336 14.992C68.4853 14.5973 68.624 14.2027 68.752 13.808C68.8907 13.4027 69.0027 13.04 69.088 12.72ZM66.128 15.616H71.536V16.704H66.128V27.296H65.024V16.752L66.08 15.616H66.128ZM68.128 16.096H69.216V25.92H68.128V16.096ZM73.616 13.44H80.528V14.544H73.616V13.44ZM81.664 18.016H88.096V19.168H81.664V18.016ZM85.136 18.752H86.32V27.28H85.136V18.752ZM81.2 14.144L82.704 14.528C82.6827 14.6453 82.576 14.72 82.384 14.752V18.416C82.384 19.0667 82.352 19.7707 82.288 20.528C82.224 21.2747 82.096 22.0427 81.904 22.832C81.7227 23.6213 81.4507 24.3947 81.088 25.152C80.7253 25.9093 80.24 26.608 79.632 27.248C79.5787 27.152 79.4987 27.0507 79.392 26.944C79.296 26.8373 79.184 26.736 79.056 26.64C78.9387 26.544 78.832 26.4747 78.736 26.432C79.3013 25.8347 79.744 25.2 80.064 24.528C80.3947 23.856 80.64 23.168 80.8 22.464C80.96 21.7493 81.0667 21.0507 81.12 20.368C81.1733 19.6747 81.2 19.0187 81.2 18.4V14.144ZM74.208 16.224H75.36V20.544C75.36 21.056 75.3387 21.6053 75.296 22.192C75.264 22.7787 75.1947 23.376 75.088 23.984C74.992 24.5813 74.8533 25.168 74.672 25.744C74.4907 26.3093 74.24 26.8267 73.92 27.296C73.8667 27.2213 73.7813 27.136 73.664 27.04C73.5467 26.9547 73.424 26.864 73.296 26.768C73.1787 26.6827 73.0773 26.6187 72.992 26.576C73.3653 25.9893 73.6373 25.344 73.808 24.64C73.9787 23.936 74.0853 23.232 74.128 22.528C74.1813 21.8133 74.208 21.1467 74.208 20.528V16.224ZM86.704 12.752L87.76 13.648C87.2373 13.904 86.6453 14.1493 85.984 14.384C85.3227 14.608 84.64 14.8213 83.936 15.024C83.232 15.216 82.544 15.3867 81.872 15.536C81.84 15.408 81.7813 15.248 81.696 15.056C81.6107 14.864 81.5253 14.704 81.44 14.576C82.08 14.416 82.7253 14.24 83.376 14.048C84.0373 13.856 84.656 13.648 85.232 13.424C85.8187 13.2 86.3093 12.976 86.704 12.752ZM74.88 16.224H80.112V21.216H74.88V20.128H78.944V17.328H74.88V16.224Z" fill="#12A364"/>
</g>
<defs>
<filter id="filter0_d_20_8400" x="0" y="0" width="101" height="40" filterUnits="userSpaceOnUse" color-interpolation-filters="sRGB">
<feFlood flood-opacity="0" result="BackgroundImageFix"/>
<feColorMatrix in="SourceAlpha" type="matrix" values="0 0 0 0 0 0 0 0 0 0 0 0 0 0 0 0 0 0 127 0" result="hardAlpha"/>
<feOffset/>
<feGaussianBlur stdDeviation="2"/>
<feComposite in2="hardAlpha" operator="out"/>
<feColorMatrix type="matrix" values="0 0 0 0 0 0 0 0 0 0 0 0 0 0 0 0 0 0 0.16 0"/>
<feBlend mode="normal" in2="BackgroundImageFix" result="effect1_dropShadow_20_8400"/>
<feBlend mode="normal" in="SourceGraphic" in2="effect1_dropShadow_20_8400" result="shape"/>
</filter>
</defs>
</svg>
