<svg width="117" height="40" viewBox="0 0 117 40" fill="none" xmlns="http://www.w3.org/2000/svg">
<g filter="url(#filter0_d_20_8393)">
<rect x="4" y="4" width="109" height="32" rx="16" fill="white" shape-rendering="crispEdges"/>
<path d="M27.1516 23.7305L25.2306 25.7218C24.9429 26.0306 24.5371 26.2069 24.1166 26.2069C23.7315 26.2069 23.3645 26.0625 23.0821 25.8008C22.5059 25.2664 22.436 24.3627 22.9226 23.7437L23.5977 22.893C22.8839 22.8114 22.1317 22.7674 21.3544 22.7674C16.7403 22.7674 12.9999 24.3074 12.9999 26.2069C12.9999 28.1065 16.7403 29.6465 21.3544 29.6465C25.9684 29.6465 29.7089 28.1065 29.7089 26.2069C29.7089 25.2344 28.7281 24.3563 27.1519 23.7305H27.1516Z" fill="#747484"/>
<path d="M28.8002 21.1961C29.1985 20.7531 29.8111 20.0596 30.2425 19.5143C30.5129 19.1725 30.6832 18.8765 30.7344 18.4719L30.0247 15.4557L30.9104 15.5073L32.3285 17.3843C32.6023 17.7449 33.1142 17.8412 33.5008 17.5915C33.9062 17.3293 34.0224 16.7882 33.7599 16.3828L32.2172 13.9977C32.0649 13.7657 31.8058 13.6017 31.5076 13.5844L31.4733 13.5825L29.5576 13.4716L28.3643 13.4043C27.619 13.3651 26.877 13.6743 26.1113 14.587L24.8544 16.077L22.481 16.1075C22.1001 16.112 21.7721 16.3986 21.7262 16.787C21.6762 17.2094 21.9782 17.5922 22.4005 17.6422L25.255 17.9792C25.4618 18.0029 25.6807 17.9442 25.8514 17.7979L27.0041 16.813L27.7401 18.5794L23.3656 24.0927C23.0609 24.4804 23.0974 25.046 23.4652 25.3875C23.8526 25.747 24.458 25.7245 24.8176 25.3371L28.7998 21.1965L28.8002 21.1961Z" fill="#747484"/>
<path d="M27.8472 12.5295C28.3136 11.7246 28.0392 10.694 27.2342 10.2276C26.4293 9.76116 25.3987 10.0356 24.9323 10.8405C24.4659 11.6454 24.7403 12.676 25.5452 13.1425C26.3501 13.6089 27.3808 13.3344 27.8472 12.5295Z" fill="#747484"/>
<path d="M34.1277 21.8686L31.6945 21.7392L30.9946 19.5162L30.9773 19.4429C30.898 19.5719 30.8066 19.6982 30.7047 19.8272C30.2007 20.465 29.4764 21.2762 29.0932 21.6989L29.9578 23.3469C30.1315 23.6767 30.4858 23.8937 30.8829 23.8738L34.1255 23.7083C34.5892 23.6831 34.9731 23.3116 34.9983 22.8373C35.0254 22.3292 34.6354 21.8956 34.1273 21.8686H34.1277Z" fill="#747484"/>
<path d="M40.704 19.104H55.36V20.416H40.704V19.104ZM63.056 14.464H71.072V15.536H63.056V14.464ZM62.384 17.568H71.744V18.656H62.384V17.568ZM62.464 20.464H71.584V21.536H62.464V20.464ZM66.416 12.544H67.6V18.24H66.416V12.544ZM68.528 18.48H69.712V25.856C69.712 26.1973 69.664 26.4587 69.568 26.64C69.472 26.832 69.3013 26.9707 69.056 27.056C68.8 27.152 68.464 27.2107 68.048 27.232C67.632 27.2533 67.0987 27.264 66.448 27.264C66.4267 27.104 66.3733 26.912 66.288 26.688C66.2133 26.4747 66.1333 26.288 66.048 26.128C66.5387 26.1387 66.9867 26.144 67.392 26.144C67.7973 26.1547 68.064 26.1547 68.192 26.144C68.32 26.144 68.4053 26.1227 68.448 26.08C68.5013 26.0373 68.528 25.9573 68.528 25.84V18.48ZM63.44 22.656L64.4 22.096C64.6667 22.3627 64.9387 22.6613 65.216 22.992C65.4933 23.3227 65.744 23.648 65.968 23.968C66.2027 24.288 66.3787 24.5813 66.496 24.848L65.472 25.472C65.3547 25.2053 65.184 24.912 64.96 24.592C64.7467 24.2613 64.5067 23.9307 64.24 23.6C63.9733 23.2587 63.7067 22.944 63.44 22.656ZM58.112 13.6H62.112V24.128H58.112V23.04H60.976V14.704H58.112V13.6ZM58.16 18.256H61.504V19.344H58.16V18.256ZM57.536 13.6H58.656V25.44H57.536V13.6ZM76.192 18.88V24.528H75.104V19.968H73.328V18.88H76.192ZM76.192 24.096C76.5867 24.6933 77.1413 25.1413 77.856 25.44C78.5707 25.728 79.4027 25.888 80.352 25.92C80.8107 25.9413 81.3707 25.9573 82.032 25.968C82.704 25.968 83.408 25.9627 84.144 25.952C84.8907 25.9413 85.6053 25.9253 86.288 25.904C86.9707 25.8827 87.5627 25.856 88.064 25.824C88.0213 25.9093 87.9733 26.016 87.92 26.144C87.8667 26.2827 87.8187 26.4213 87.776 26.56C87.7333 26.6987 87.7013 26.8267 87.68 26.944C87.2213 26.9653 86.672 26.9813 86.032 26.992C85.392 27.0027 84.7253 27.008 84.032 27.008C83.3387 27.0187 82.672 27.0187 82.032 27.008C81.392 27.008 80.8373 26.9973 80.368 26.976C79.3013 26.9333 78.384 26.7627 77.616 26.464C76.8587 26.1653 76.2293 25.7013 75.728 25.072C75.4187 25.4133 75.0987 25.7547 74.768 26.096C74.4373 26.448 74.1013 26.8053 73.76 27.168L73.136 26.064C73.4667 25.7973 73.8133 25.4933 74.176 25.152C74.5387 24.8 74.8853 24.448 75.216 24.096H76.192ZM73.408 13.536L74.368 12.96C74.656 13.2373 74.944 13.5413 75.232 13.872C75.52 14.192 75.7813 14.5173 76.016 14.848C76.2507 15.1787 76.4267 15.4827 76.544 15.76L75.52 16.368C75.4027 16.1013 75.232 15.8027 75.008 15.472C74.784 15.1307 74.5333 14.7947 74.256 14.464C73.9787 14.1227 73.696 13.8133 73.408 13.536ZM77.616 13.296H78.656V16.048C78.656 16.592 78.6347 17.1893 78.592 17.84C78.5493 18.48 78.464 19.1413 78.336 19.824C78.208 20.5067 78.032 21.1787 77.808 21.84C77.584 22.4907 77.2853 23.0933 76.912 23.648C76.8693 23.5733 76.7947 23.488 76.688 23.392C76.592 23.2853 76.4907 23.1893 76.384 23.104C76.288 23.008 76.2027 22.9387 76.128 22.896C76.576 22.2027 76.9013 21.4507 77.104 20.64C77.3173 19.8293 77.456 19.024 77.52 18.224C77.584 17.424 77.616 16.6933 77.616 16.032V13.296ZM78.208 13.296H81.712V17.712H78.208V16.752H80.672V14.256H78.208V13.296ZM78.624 19.392H81.936V24.048H78.624V23.088H80.896V20.352H78.624V19.392ZM78.096 19.392H79.104V24.896H78.096V19.392ZM82.272 14.528H87.696V15.52H82.272V14.528ZM82.336 21.072H87.648V22.064H82.336V21.072ZM82.128 18.272H87.824V19.28H82.128V18.272ZM84.432 12.56H85.536V15.056H84.432V12.56ZM84.432 18.608H85.536V25.088H84.432V18.608ZM82.976 15.792L83.84 15.6C84.0107 15.984 84.1547 16.4053 84.272 16.864C84.3893 17.312 84.4533 17.696 84.464 18.016L83.536 18.24C83.5147 17.9093 83.4507 17.52 83.344 17.072C83.248 16.6133 83.1253 16.1867 82.976 15.792ZM86.144 15.536L87.152 15.776C87.0133 16.2133 86.8693 16.6613 86.72 17.12C86.5707 17.568 86.4267 17.952 86.288 18.272L85.472 18.048C85.5467 17.824 85.6267 17.5627 85.712 17.264C85.808 16.9653 85.8933 16.6667 85.968 16.368C86.0427 16.0587 86.1013 15.7813 86.144 15.536ZM90.176 20.8H96.496V21.728H90.176V20.8ZM89.632 22.816H96.88V23.792H89.632V22.816ZM89.712 14.048H96.912V15.024H89.712V14.048ZM91.264 12.56H92.32V16.096H91.264V12.56ZM94.336 12.56H95.392V16.096H94.336V12.56ZM92.752 16.752H93.76V19.408H92.752V16.752ZM91.104 17.296V18.944H95.44V17.296H91.104ZM90.144 16.448H96.448V19.808H90.144V16.448ZM93.296 23.824C93.456 23.9093 93.6907 24.0587 94 24.272C94.3093 24.4747 94.64 24.6987 94.992 24.944C95.3547 25.1787 95.6853 25.4027 95.984 25.616C96.2827 25.8293 96.5013 25.984 96.64 26.08L95.92 27.072C95.7493 26.912 95.52 26.7147 95.232 26.48C94.944 26.2453 94.6347 26 94.304 25.744C93.9733 25.488 93.6587 25.248 93.36 25.024C93.0613 24.7893 92.8107 24.6027 92.608 24.464L93.296 23.824ZM92.704 19.264H93.824V22C93.824 22.448 93.7813 22.912 93.696 23.392C93.6107 23.872 93.4453 24.3467 93.2 24.816C92.9653 25.2853 92.608 25.7333 92.128 26.16C91.6587 26.5973 91.0293 26.9867 90.24 27.328C90.1547 27.2107 90.0373 27.0667 89.888 26.896C89.7493 26.736 89.616 26.6027 89.488 26.496C90.2133 26.2187 90.7893 25.8933 91.216 25.52C91.6427 25.1467 91.9627 24.7573 92.176 24.352C92.3893 23.936 92.528 23.5253 92.592 23.12C92.6667 22.7147 92.704 22.336 92.704 21.984V19.264ZM98.048 18.864H104.08V19.904H98.048V18.864ZM98.048 22.08H104.08V23.12H98.048V22.08ZM98.016 25.344H104.368V26.448H98.016V25.344ZM98.752 12.56L99.856 12.816C99.6533 13.6053 99.408 14.384 99.12 15.152C98.832 15.92 98.5173 16.6453 98.176 17.328C97.8453 18 97.4933 18.5973 97.12 19.12C97.056 19.056 96.9653 18.976 96.848 18.88C96.7413 18.784 96.6293 18.688 96.512 18.592C96.3947 18.496 96.2933 18.4213 96.208 18.368C96.5707 17.888 96.9067 17.3387 97.216 16.72C97.536 16.0907 97.824 15.424 98.08 14.72C98.3467 14.0053 98.5707 13.2853 98.752 12.56ZM101.728 12.72L102.88 13.008C102.677 13.5733 102.453 14.1547 102.208 14.752C101.963 15.3493 101.728 15.856 101.504 16.272L100.528 16C100.677 15.712 100.827 15.376 100.976 14.992C101.125 14.5973 101.264 14.2027 101.392 13.808C101.531 13.4027 101.643 13.04 101.728 12.72ZM98.768 15.616H104.176V16.704H98.768V27.296H97.664V16.752L98.72 15.616H98.768ZM100.768 16.096H101.856V25.92H100.768V16.096Z" fill="#5C5C6A"/>
</g>
<defs>
<filter id="filter0_d_20_8393" x="0" y="0" width="117" height="40" filterUnits="userSpaceOnUse" color-interpolation-filters="sRGB">
<feFlood flood-opacity="0" result="BackgroundImageFix"/>
<feColorMatrix in="SourceAlpha" type="matrix" values="0 0 0 0 0 0 0 0 0 0 0 0 0 0 0 0 0 0 127 0" result="hardAlpha"/>
<feOffset/>
<feGaussianBlur stdDeviation="2"/>
<feComposite in2="hardAlpha" operator="out"/>
<feColorMatrix type="matrix" values="0 0 0 0 0 0 0 0 0 0 0 0 0 0 0 0 0 0 0.16 0"/>
<feBlend mode="normal" in2="BackgroundImageFix" result="effect1_dropShadow_20_8393"/>
<feBlend mode="normal" in="SourceGraphic" in2="effect1_dropShadow_20_8393" result="shape"/>
</filter>
</defs>
</svg>
