<svg width="322" height="66" viewBox="0 0 322 66" fill="none" xmlns="http://www.w3.org/2000/svg">
<g filter="url(#filter0_d_20_10020)">
<path d="M4 32.8773C4 16.9288 16.9288 4 32.8773 4H289.123C305.071 4 318 16.9288 318 32.8773C318 48.8257 305.071 61.7545 289.123 61.7545H32.8773C16.9288 61.7545 4 48.8257 4 32.8773Z" fill="#13ADAD" shape-rendering="crispEdges"/>
<g clip-path="url(#clip0_20_10020)">
<path d="M35.1468 16C26.7953 16 20 22.3868 20 30.2379C20 35.8306 23.5065 40.9287 28.9338 43.2259L28.9819 49.3342C28.9836 49.4946 29.0747 49.6414 29.2199 49.7115C29.279 49.7402 29.3431 49.7545 29.4064 49.7545C29.4975 49.7545 29.5887 49.725 29.6638 49.6676L36.5477 44.4142C40.2922 44.0909 43.7599 42.4731 46.3119 39.8586C48.88 37.2273 50.2944 33.8102 50.2944 30.237C50.2944 22.3868 43.4991 16 35.1468 16ZM44.6114 38.1995C42.4569 40.4072 39.5209 41.7735 36.3435 42.0469L35.6557 42.106L31.3263 45.41L31.2968 41.6461L29.8596 41.0376C25.3134 39.1126 22.3757 34.8736 22.3757 30.237C22.3757 23.6966 28.1051 18.3757 35.1468 18.3757C42.1885 18.3757 47.9188 23.6975 47.9188 30.2379C47.9188 33.1874 46.744 36.0154 44.6114 38.2003V38.1995Z" fill="white"/>
<path d="M41.8232 30.1501C41.8232 26.4689 38.829 23.4746 35.1477 23.4746C31.4665 23.4746 28.4723 26.4697 28.4723 30.1501C28.4723 33.8304 31.4674 36.8255 35.1477 36.8255C36.2938 36.8255 37.3723 36.5352 38.3158 36.0246C38.9471 36.3479 39.6737 36.6264 40.5008 36.8019L40.9556 34.6592C40.7042 34.606 40.4645 34.5393 40.2375 34.4634C41.2257 33.2988 41.8232 31.7932 41.8232 30.1501ZM35.1469 34.6347C32.6734 34.6347 30.6614 32.6228 30.6614 30.1492C30.6614 27.6757 32.6734 25.6638 35.1469 25.6638C37.6205 25.6638 39.6324 27.6757 39.6324 30.1492C39.6324 31.4227 39.0982 32.573 38.2433 33.3899C37.4238 32.7553 37.0086 32.1443 37.0019 32.1333L36.087 32.7342L35.168 33.3308C35.1984 33.3781 35.536 33.887 36.19 34.5115C35.8558 34.5917 35.5073 34.6347 35.1486 34.6347H35.1469Z" fill="white"/>
<path d="M58.4155 32.2152H59.8553L59.1354 30.7045L58.4155 32.2152Z" fill="white"/>
<path d="M54.4929 18.8702C52.5122 18.8702 50.6303 19.2728 48.934 19.996C51.2725 22.8198 52.6692 26.377 52.6692 30.2379C52.6692 34.4348 51.0151 38.4409 48.0116 41.5187C47.7584 41.7778 47.4976 42.0284 47.2292 42.2706C49.0285 43.3509 51.0843 44.0209 53.2439 44.2074L59.3092 48.8364C59.3843 48.8938 59.4755 48.9233 59.5666 48.9233C59.6299 48.9233 59.694 48.909 59.7531 48.8803C59.8974 48.8094 59.9894 48.6634 59.9911 48.503L60.0333 43.1483C64.8724 41.0993 67.9991 36.5539 67.9991 31.5663C67.9991 24.5659 61.9406 18.8702 54.4929 18.8702ZM61.965 36.645L60.7473 34.0888H57.5226L56.3048 36.645L54.6136 35.8391L59.1354 26.3432L63.6571 35.8391L61.9659 36.645H61.965Z" fill="white"/>
</g>
<path d="M77.6502 27.2453C78.2369 27.3093 78.8982 27.3573 79.6342 27.3893C80.3702 27.4213 81.1595 27.4373 82.0022 27.4373C82.5249 27.4373 83.0635 27.4266 83.6182 27.4053C84.1835 27.3839 84.7275 27.3573 85.2502 27.3253C85.7729 27.2933 86.2369 27.2559 86.6422 27.2133V29.3413C86.2689 29.3733 85.8155 29.4053 85.2822 29.4373C84.7595 29.4693 84.2102 29.4959 83.6342 29.5173C83.0689 29.5279 82.5302 29.5333 82.0182 29.5333C81.1862 29.5333 80.4129 29.5173 79.6982 29.4853C78.9835 29.4533 78.3009 29.4106 77.6502 29.3573V27.2453ZM78.9942 34.0293C78.9195 34.3066 78.8555 34.5786 78.8022 34.8453C78.7489 35.1119 78.7222 35.3786 78.7222 35.6453C78.7222 36.1573 78.9782 36.5786 79.4902 36.9093C80.0129 37.2399 80.8502 37.4053 82.0022 37.4053C82.7275 37.4053 83.4262 37.3786 84.0982 37.3253C84.7702 37.2719 85.4049 37.1973 86.0022 37.1013C86.6102 37.0053 87.1489 36.8933 87.6182 36.7653L87.6342 39.0213C87.1649 39.1279 86.6422 39.2186 86.0662 39.2933C85.4902 39.3786 84.8662 39.4426 84.1942 39.4853C83.5329 39.5386 82.8289 39.5653 82.0822 39.5653C80.8662 39.5653 79.8475 39.4319 79.0262 39.1653C78.2049 38.8986 77.5915 38.5146 77.1862 38.0133C76.7809 37.5013 76.5782 36.8773 76.5782 36.1413C76.5782 35.6719 76.6155 35.2453 76.6902 34.8613C76.7649 34.4773 76.8342 34.1359 76.8982 33.8373L78.9942 34.0293ZM99.9382 27.9173C99.8315 28.7279 99.6929 29.5919 99.5222 30.5093C99.3515 31.4266 99.1222 32.3546 98.8342 33.2933C98.5249 34.3706 98.1622 35.2986 97.7462 36.0773C97.3302 36.8559 96.8715 37.4586 96.3702 37.8853C95.8795 38.3013 95.3409 38.5093 94.7542 38.5093C94.1675 38.5093 93.6235 38.3119 93.1222 37.9173C92.6315 37.5119 92.2369 36.9573 91.9382 36.2533C91.6502 35.5493 91.5062 34.7493 91.5062 33.8533C91.5062 32.9253 91.6929 32.0506 92.0662 31.2293C92.4395 30.4079 92.9569 29.6826 93.6182 29.0533C94.2902 28.4133 95.0689 27.9119 95.9542 27.5493C96.8502 27.1866 97.8155 27.0053 98.8502 27.0053C99.8422 27.0053 100.733 27.1653 101.522 27.4853C102.322 27.8053 103.005 28.2479 103.57 28.8133C104.136 29.3786 104.568 30.0399 104.866 30.7973C105.165 31.5546 105.314 32.3706 105.314 33.2453C105.314 34.3653 105.085 35.3679 104.626 36.2533C104.168 37.1386 103.485 37.8693 102.578 38.4453C101.682 39.0213 100.562 39.4159 99.2182 39.6293L98.0182 37.7253C98.3275 37.6933 98.5995 37.6559 98.8342 37.6133C99.0689 37.5706 99.2929 37.5226 99.5062 37.4693C100.018 37.3413 100.493 37.1599 100.93 36.9253C101.378 36.6799 101.768 36.3813 102.098 36.0293C102.429 35.6666 102.685 35.2453 102.866 34.7653C103.058 34.2853 103.154 33.7573 103.154 33.1813C103.154 32.5519 103.058 31.9759 102.866 31.4533C102.674 30.9306 102.392 30.4773 102.018 30.0933C101.645 29.6986 101.192 29.3999 100.658 29.1973C100.125 28.9839 99.5115 28.8773 98.8182 28.8773C97.9649 28.8773 97.2129 29.0319 96.5622 29.3413C95.9115 29.6399 95.3622 30.0293 94.9142 30.5093C94.4662 30.9893 94.1249 31.5066 93.8902 32.0613C93.6662 32.6159 93.5542 33.1439 93.5542 33.6453C93.5542 34.1786 93.6182 34.6266 93.7462 34.9893C93.8742 35.3413 94.0289 35.6079 94.2102 35.7893C94.4022 35.9599 94.6049 36.0453 94.8182 36.0453C95.0422 36.0453 95.2609 35.9333 95.4742 35.7093C95.6982 35.4746 95.9169 35.1226 96.1302 34.6533C96.3435 34.1839 96.5569 33.5919 96.7702 32.8773C97.0155 32.1093 97.2235 31.2879 97.3942 30.4133C97.5649 29.5386 97.6875 28.6853 97.7622 27.8533L99.9382 27.9173ZM120.146 28.0293C120.082 28.1253 119.986 28.2746 119.858 28.4773C119.741 28.6799 119.65 28.8666 119.586 29.0373C119.362 29.5386 119.085 30.0986 118.754 30.7173C118.434 31.3359 118.066 31.9599 117.65 32.5893C117.245 33.2079 116.813 33.7893 116.354 34.3333C115.757 35.0053 115.096 35.6719 114.37 36.3333C113.656 36.9839 112.898 37.5866 112.098 38.1413C111.309 38.6853 110.498 39.1546 109.666 39.5493L108.018 37.8213C108.882 37.4906 109.72 37.0746 110.53 36.5733C111.341 36.0719 112.093 35.5279 112.786 34.9413C113.48 34.3546 114.077 33.7839 114.578 33.2293C114.93 32.8239 115.261 32.3919 115.57 31.9333C115.89 31.4746 116.173 31.0213 116.418 30.5733C116.664 30.1146 116.845 29.6933 116.962 29.3093C116.856 29.3093 116.664 29.3093 116.386 29.3093C116.109 29.3093 115.784 29.3093 115.41 29.3093C115.048 29.3093 114.664 29.3093 114.258 29.3093C113.853 29.3093 113.464 29.3093 113.09 29.3093C112.728 29.3093 112.408 29.3093 112.13 29.3093C111.853 29.3093 111.656 29.3093 111.538 29.3093C111.314 29.3093 111.08 29.3199 110.834 29.3413C110.589 29.3519 110.354 29.3679 110.13 29.3893C109.917 29.3999 109.752 29.4106 109.634 29.4213V27.1493C109.794 27.1599 109.992 27.1759 110.226 27.1973C110.461 27.2186 110.696 27.2346 110.93 27.2453C111.176 27.2559 111.378 27.2613 111.538 27.2613C111.677 27.2613 111.896 27.2613 112.194 27.2613C112.493 27.2613 112.834 27.2613 113.218 27.2613C113.602 27.2613 113.997 27.2613 114.402 27.2613C114.818 27.2613 115.213 27.2613 115.586 27.2613C115.97 27.2613 116.301 27.2613 116.578 27.2613C116.856 27.2613 117.058 27.2613 117.186 27.2613C117.538 27.2613 117.858 27.2399 118.146 27.1973C118.445 27.1546 118.674 27.1066 118.834 27.0533L120.146 28.0293ZM116.562 33.0053C116.978 33.3359 117.421 33.7199 117.89 34.1573C118.36 34.5946 118.824 35.0479 119.282 35.5173C119.741 35.9866 120.162 36.4399 120.546 36.8773C120.941 37.3039 121.272 37.6773 121.538 37.9973L119.714 39.5813C119.32 39.0373 118.866 38.4719 118.354 37.8853C117.853 37.2986 117.32 36.7173 116.754 36.1413C116.2 35.5546 115.634 34.9999 115.058 34.4773L116.562 33.0053ZM135.522 26.8773C135.522 27.1226 135.608 27.3306 135.778 27.5013C135.949 27.6613 136.157 27.7413 136.402 27.7413C136.637 27.7413 136.84 27.6613 137.01 27.5013C137.181 27.3306 137.266 27.1226 137.266 26.8773C137.266 26.6426 137.181 26.4399 137.01 26.2693C136.84 26.0986 136.637 26.0133 136.402 26.0133C136.157 26.0133 135.949 26.0986 135.778 26.2693C135.608 26.4399 135.522 26.6426 135.522 26.8773ZM134.546 26.8773C134.546 26.5359 134.626 26.2266 134.786 25.9493C134.957 25.6719 135.181 25.4479 135.458 25.2773C135.746 25.1066 136.061 25.0213 136.402 25.0213C136.744 25.0213 137.053 25.1066 137.33 25.2773C137.608 25.4479 137.826 25.6719 137.986 25.9493C138.157 26.2266 138.242 26.5359 138.242 26.8773C138.242 27.2186 138.157 27.5333 137.986 27.8213C137.826 28.0986 137.608 28.3226 137.33 28.4933C137.053 28.6533 136.744 28.7333 136.402 28.7333C136.061 28.7333 135.746 28.6533 135.458 28.4933C135.181 28.3226 134.957 28.0986 134.786 27.8213C134.626 27.5333 134.546 27.2186 134.546 26.8773ZM132.338 26.2533C132.328 26.3279 132.312 26.4506 132.29 26.6213C132.269 26.7919 132.248 26.9733 132.226 27.1653C132.205 27.3466 132.194 27.5066 132.194 27.6453C132.194 27.9653 132.194 28.3173 132.194 28.7013C132.194 29.0853 132.194 29.4693 132.194 29.8533C132.194 30.2266 132.194 30.5679 132.194 30.8773C132.194 31.0906 132.194 31.3893 132.194 31.7733C132.194 32.1573 132.194 32.5893 132.194 33.0693C132.194 33.5493 132.194 34.0506 132.194 34.5733C132.194 35.0853 132.194 35.5866 132.194 36.0773C132.194 36.5573 132.194 36.9946 132.194 37.3893C132.194 37.7733 132.194 38.0773 132.194 38.3013C132.194 38.7599 132.056 39.1226 131.778 39.3893C131.512 39.6666 131.096 39.8053 130.53 39.8053C130.242 39.8053 129.949 39.7999 129.65 39.7893C129.352 39.7786 129.058 39.7626 128.77 39.7413C128.482 39.7199 128.2 39.6933 127.922 39.6613L127.73 37.6773C128.072 37.7413 128.402 37.7893 128.722 37.8213C129.053 37.8533 129.314 37.8693 129.506 37.8693C129.72 37.8693 129.869 37.8266 129.954 37.7413C130.04 37.6453 130.088 37.4959 130.098 37.2933C130.098 37.1973 130.098 36.9893 130.098 36.6693C130.109 36.3493 130.114 35.9706 130.114 35.5333C130.114 35.0959 130.114 34.6319 130.114 34.1413C130.114 33.6506 130.114 33.1813 130.114 32.7333C130.114 32.2853 130.114 31.8959 130.114 31.5653C130.114 31.2346 130.114 31.0053 130.114 30.8773C130.114 30.6853 130.114 30.3973 130.114 30.0133C130.114 29.6186 130.114 29.2026 130.114 28.7653C130.114 28.3279 130.114 27.9546 130.114 27.6453C130.114 27.4319 130.098 27.1813 130.066 26.8933C130.034 26.5946 130.002 26.3813 129.97 26.2533H132.338ZM124.498 28.7973C124.744 28.8293 125 28.8613 125.266 28.8933C125.533 28.9146 125.794 28.9253 126.05 28.9253C126.178 28.9253 126.434 28.9253 126.818 28.9253C127.213 28.9253 127.682 28.9253 128.226 28.9253C128.77 28.9253 129.352 28.9253 129.97 28.9253C130.6 28.9253 131.229 28.9253 131.858 28.9253C132.498 28.9253 133.09 28.9253 133.634 28.9253C134.189 28.9253 134.669 28.9253 135.074 28.9253C135.48 28.9253 135.762 28.9253 135.922 28.9253C136.146 28.9253 136.408 28.9146 136.706 28.8933C137.016 28.8719 137.282 28.8453 137.506 28.8133V30.9093C137.261 30.8879 136.994 30.8773 136.706 30.8773C136.418 30.8666 136.162 30.8613 135.938 30.8613C135.778 30.8613 135.496 30.8613 135.09 30.8613C134.696 30.8613 134.221 30.8613 133.666 30.8613C133.122 30.8613 132.536 30.8613 131.906 30.8613C131.277 30.8613 130.648 30.8613 130.018 30.8613C129.389 30.8613 128.802 30.8613 128.258 30.8613C127.714 30.8613 127.245 30.8613 126.85 30.8613C126.466 30.8613 126.2 30.8613 126.05 30.8613C125.816 30.8613 125.554 30.8666 125.266 30.8773C124.989 30.8879 124.733 30.9039 124.498 30.9253V28.7973ZM128.578 33.1333C128.397 33.4959 128.178 33.8853 127.922 34.3013C127.666 34.7173 127.389 35.1333 127.09 35.5493C126.802 35.9653 126.52 36.3546 126.242 36.7173C125.965 37.0693 125.714 37.3626 125.49 37.5973L123.762 36.4133C124.029 36.1679 124.301 35.8799 124.578 35.5493C124.866 35.2079 125.144 34.8506 125.41 34.4773C125.688 34.1039 125.938 33.7306 126.162 33.3573C126.397 32.9839 126.6 32.6266 126.77 32.2853L128.578 33.1333ZM135.458 32.2373C135.661 32.4933 135.885 32.7973 136.13 33.1493C136.386 33.5013 136.642 33.8799 136.898 34.2853C137.154 34.6799 137.394 35.0693 137.618 35.4533C137.842 35.8266 138.034 36.1573 138.194 36.4453L136.306 37.4693C136.136 37.1279 135.938 36.7599 135.714 36.3653C135.501 35.9706 135.277 35.5759 135.042 35.1813C134.808 34.7866 134.573 34.4186 134.338 34.0773C134.114 33.7253 133.906 33.4266 133.714 33.1813L135.458 32.2373ZM147.522 29.3733C147.597 29.5439 147.693 29.7893 147.81 30.1093C147.938 30.4186 148.072 30.7546 148.21 31.1173C148.349 31.4693 148.472 31.8053 148.578 32.1253C148.685 32.4453 148.77 32.6959 148.834 32.8773L146.914 33.5493C146.872 33.3466 146.797 33.0906 146.69 32.7813C146.584 32.4719 146.466 32.1466 146.338 31.8053C146.21 31.4533 146.082 31.1173 145.954 30.7973C145.826 30.4773 145.714 30.2106 145.618 29.9973L147.522 29.3733ZM153.426 30.5413C153.341 30.7973 153.266 31.0159 153.202 31.1973C153.149 31.3786 153.096 31.5493 153.042 31.7093C152.84 32.5199 152.562 33.3306 152.21 34.1413C151.858 34.9413 151.41 35.6933 150.866 36.3973C150.12 37.3573 149.272 38.1733 148.322 38.8453C147.384 39.5066 146.445 40.0133 145.506 40.3653L143.826 38.6533C144.413 38.4933 145.032 38.2586 145.682 37.9493C146.333 37.6293 146.962 37.2453 147.57 36.7973C148.178 36.3493 148.701 35.8533 149.138 35.3093C149.501 34.8506 149.821 34.3279 150.098 33.7413C150.386 33.1439 150.621 32.5093 150.802 31.8373C150.994 31.1546 151.122 30.4826 151.186 29.8213L153.426 30.5413ZM143.81 30.2213C143.917 30.4239 144.034 30.6853 144.162 31.0053C144.301 31.3253 144.44 31.6613 144.578 32.0133C144.717 32.3653 144.85 32.7066 144.978 33.0373C145.117 33.3679 145.224 33.6453 145.298 33.8693L143.346 34.6053C143.282 34.3919 143.186 34.1146 143.058 33.7733C142.941 33.4319 142.808 33.0746 142.658 32.7013C142.509 32.3173 142.365 31.9653 142.226 31.6453C142.098 31.3253 141.986 31.0799 141.89 30.9093L143.81 30.2213ZM160.786 37.3413C160.786 37.1386 160.786 36.8079 160.786 36.3493C160.786 35.8799 160.786 35.3413 160.786 34.7333C160.786 34.1146 160.786 33.4693 160.786 32.7973C160.786 32.1253 160.786 31.4799 160.786 30.8613C160.786 30.2319 160.786 29.6773 160.786 29.1973C160.786 28.7173 160.786 28.3653 160.786 28.1413C160.786 27.8639 160.77 27.5439 160.738 27.1813C160.717 26.8186 160.68 26.4986 160.626 26.2213H163.122C163.09 26.4986 163.058 26.8079 163.026 27.1493C162.994 27.4799 162.978 27.8106 162.978 28.1413C162.978 28.4399 162.978 28.8453 162.978 29.3573C162.978 29.8693 162.978 30.4399 162.978 31.0693C162.978 31.6879 162.978 32.3226 162.978 32.9733C162.978 33.6133 162.978 34.2319 162.978 34.8293C162.978 35.4266 162.978 35.9493 162.978 36.3973C162.978 36.8346 162.978 37.1493 162.978 37.3413C162.978 37.4906 162.984 37.7039 162.994 37.9813C163.005 38.2479 163.026 38.5253 163.058 38.8133C163.09 39.1013 163.112 39.3573 163.122 39.5813H160.626C160.669 39.2613 160.706 38.8879 160.738 38.4613C160.77 38.0346 160.786 37.6613 160.786 37.3413ZM162.498 30.3653C163.032 30.5039 163.629 30.6853 164.29 30.9093C164.952 31.1226 165.618 31.3519 166.29 31.5973C166.962 31.8426 167.592 32.0879 168.178 32.3333C168.776 32.5679 169.272 32.7866 169.666 32.9893L168.754 35.1973C168.306 34.9626 167.81 34.7279 167.266 34.4933C166.722 34.2479 166.168 34.0133 165.602 33.7893C165.048 33.5653 164.498 33.3573 163.954 33.1653C163.421 32.9733 162.936 32.8026 162.498 32.6533V30.3653ZM179.25 27.6933C179.741 27.7573 180.29 27.8053 180.898 27.8373C181.517 27.8586 182.141 27.8693 182.77 27.8693C183.41 27.8586 184.024 27.8373 184.61 27.8053C185.197 27.7626 185.704 27.7199 186.13 27.6773V29.7413C185.64 29.7839 185.101 29.8213 184.514 29.8533C183.928 29.8746 183.325 29.8853 182.706 29.8853C182.088 29.8853 181.48 29.8746 180.882 29.8533C180.296 29.8213 179.752 29.7839 179.25 29.7413V27.6933ZM180.53 34.5253C180.466 34.7919 180.418 35.0319 180.386 35.2453C180.354 35.4479 180.338 35.6559 180.338 35.8693C180.338 36.0399 180.381 36.1999 180.466 36.3493C180.552 36.4879 180.68 36.6106 180.85 36.7173C181.032 36.8133 181.261 36.8879 181.538 36.9413C181.826 36.9839 182.173 37.0053 182.578 37.0053C183.293 37.0053 183.965 36.9733 184.594 36.9093C185.224 36.8346 185.89 36.7279 186.594 36.5893L186.626 38.7493C186.114 38.8453 185.522 38.9199 184.85 38.9733C184.189 39.0266 183.405 39.0533 182.498 39.0533C181.122 39.0533 180.098 38.8239 179.426 38.3653C178.754 37.8959 178.418 37.2506 178.418 36.4293C178.418 36.1199 178.44 35.7999 178.482 35.4693C178.536 35.1279 178.605 34.7546 178.69 34.3493L180.53 34.5253ZM176.786 26.6213C176.744 26.7279 176.696 26.8773 176.642 27.0693C176.589 27.2613 176.536 27.4479 176.482 27.6293C176.44 27.8106 176.408 27.9493 176.386 28.0453C176.354 28.2693 176.301 28.5626 176.226 28.9253C176.162 29.2773 176.093 29.6773 176.018 30.1253C175.954 30.5626 175.89 31.0106 175.826 31.4693C175.762 31.9279 175.709 32.3706 175.666 32.7973C175.634 33.2239 175.618 33.5973 175.618 33.9173C175.618 34.0666 175.618 34.2373 175.618 34.4293C175.629 34.6213 175.65 34.7973 175.682 34.9573C175.757 34.7759 175.837 34.5946 175.922 34.4133C176.008 34.2319 176.093 34.0506 176.178 33.8693C176.264 33.6773 176.338 33.4959 176.402 33.3253L177.394 34.1093C177.245 34.5466 177.09 35.0159 176.93 35.5173C176.781 36.0186 176.642 36.4933 176.514 36.9413C176.397 37.3786 176.306 37.7413 176.242 38.0293C176.221 38.1466 176.2 38.2799 176.178 38.4293C176.168 38.5786 176.162 38.6959 176.162 38.7813C176.162 38.8666 176.162 38.9679 176.162 39.0853C176.173 39.2133 176.184 39.3306 176.194 39.4373L174.338 39.5653C174.178 39.0106 174.034 38.2746 173.906 37.3573C173.778 36.4293 173.714 35.4213 173.714 34.3333C173.714 33.7359 173.741 33.1279 173.794 32.5093C173.848 31.8906 173.912 31.2986 173.986 30.7333C174.061 30.1573 174.13 29.6346 174.194 29.1653C174.269 28.6959 174.333 28.3066 174.386 27.9973C174.408 27.7733 174.434 27.5226 174.466 27.2453C174.509 26.9573 174.536 26.6853 174.546 26.4293L176.786 26.6213ZM189.266 30.1093C189.565 30.0559 189.896 29.9813 190.258 29.8853C190.621 29.7893 190.946 29.7039 191.234 29.6293C191.544 29.5333 191.96 29.3999 192.482 29.2293C193.016 29.0586 193.602 28.8879 194.242 28.7173C194.882 28.5466 195.533 28.4026 196.194 28.2853C196.866 28.1573 197.49 28.0933 198.066 28.0933C199.037 28.0933 199.912 28.2746 200.69 28.6373C201.469 28.9999 202.088 29.5226 202.546 30.2053C203.005 30.8879 203.234 31.7253 203.234 32.7173C203.234 33.4426 203.101 34.1146 202.834 34.7333C202.568 35.3519 202.173 35.9066 201.65 36.3973C201.138 36.8879 200.514 37.3146 199.778 37.6773C199.042 38.0399 198.2 38.3333 197.25 38.5573C196.312 38.7706 195.277 38.9039 194.146 38.9573L193.218 36.8293C194.306 36.8079 195.314 36.7119 196.242 36.5413C197.181 36.3599 198.002 36.1039 198.706 35.7733C199.41 35.4319 199.96 35.0053 200.354 34.4933C200.749 33.9813 200.946 33.3786 200.946 32.6853C200.946 32.1839 200.834 31.7359 200.61 31.3413C200.386 30.9359 200.05 30.6159 199.602 30.3813C199.165 30.1466 198.626 30.0293 197.986 30.0293C197.517 30.0293 197 30.0879 196.434 30.2053C195.869 30.3119 195.288 30.4559 194.69 30.6373C194.104 30.8186 193.528 31.0159 192.962 31.2293C192.397 31.4319 191.874 31.6346 191.394 31.8373C190.914 32.0399 190.509 32.2106 190.178 32.3493L189.266 30.1093ZM208.882 27.4373C208.84 27.6293 208.802 27.8479 208.77 28.0933C208.749 28.3386 208.728 28.5786 208.706 28.8133C208.696 29.0479 208.69 29.2399 208.69 29.3893C208.68 29.7413 208.674 30.1039 208.674 30.4773C208.685 30.8506 208.696 31.2346 208.706 31.6293C208.728 32.0133 208.754 32.3973 208.786 32.7813C208.861 33.5493 208.968 34.2266 209.106 34.8133C209.245 35.3999 209.426 35.8586 209.65 36.1893C209.874 36.5093 210.157 36.6693 210.498 36.6693C210.68 36.6693 210.856 36.5679 211.026 36.3653C211.208 36.1626 211.368 35.9013 211.506 35.5813C211.656 35.2506 211.784 34.9039 211.89 34.5413C212.008 34.1786 212.109 33.8373 212.194 33.5173L213.794 35.4693C213.442 36.3973 213.09 37.1386 212.738 37.6933C212.397 38.2373 212.04 38.6319 211.666 38.8773C211.293 39.1119 210.888 39.2293 210.45 39.2293C209.874 39.2293 209.325 39.0373 208.802 38.6533C208.29 38.2693 207.853 37.6506 207.49 36.7973C207.128 35.9333 206.872 34.7866 206.722 33.3573C206.669 32.8666 206.626 32.3493 206.594 31.8053C206.573 31.2613 206.557 30.7439 206.546 30.2533C206.546 29.7626 206.546 29.3573 206.546 29.0373C206.546 28.8133 206.536 28.5466 206.514 28.2373C206.493 27.9279 206.461 27.6506 206.418 27.4053L208.882 27.4373ZM216.882 27.8053C217.181 28.1679 217.469 28.6106 217.746 29.1333C218.024 29.6559 218.28 30.2159 218.514 30.8133C218.749 31.4106 218.957 32.0239 219.138 32.6533C219.32 33.2719 219.464 33.8799 219.57 34.4773C219.688 35.0639 219.762 35.6026 219.794 36.0933L217.682 36.9093C217.629 36.2586 217.533 35.5493 217.394 34.7813C217.256 34.0133 217.069 33.2399 216.834 32.4613C216.6 31.6826 216.317 30.9466 215.986 30.2533C215.666 29.5599 215.288 28.9626 214.85 28.4613L216.882 27.8053ZM221.694 27.8693C222.014 27.8586 222.318 27.8479 222.606 27.8373C222.894 27.8159 223.118 27.7999 223.278 27.7893C223.608 27.7573 224.014 27.7199 224.494 27.6773C224.974 27.6346 225.512 27.5866 226.11 27.5333C226.718 27.4799 227.363 27.4266 228.046 27.3733C228.728 27.3093 229.438 27.2453 230.174 27.1813C230.728 27.1386 231.283 27.1013 231.838 27.0693C232.392 27.0266 232.915 26.9946 233.406 26.9733C233.907 26.9413 234.339 26.9199 234.702 26.9093L234.718 28.9573C234.43 28.9573 234.099 28.9626 233.726 28.9733C233.352 28.9839 232.979 29.0053 232.606 29.0373C232.243 29.0586 231.918 29.1013 231.63 29.1653C231.15 29.2933 230.702 29.5119 230.286 29.8213C229.88 30.1199 229.523 30.4773 229.214 30.8933C228.904 31.3093 228.664 31.7573 228.494 32.2373C228.334 32.7066 228.254 33.1813 228.254 33.6613C228.254 34.1839 228.344 34.6479 228.526 35.0533C228.707 35.4479 228.958 35.7893 229.278 36.0773C229.608 36.3546 229.992 36.5893 230.43 36.7813C230.867 36.9626 231.336 37.1013 231.838 37.1973C232.35 37.2933 232.878 37.3573 233.422 37.3893L232.67 39.5813C231.998 39.5386 231.342 39.4319 230.702 39.2613C230.072 39.0906 229.48 38.8559 228.926 38.5573C228.382 38.2586 227.902 37.8959 227.486 37.4693C227.07 37.0319 226.744 36.5359 226.51 35.9813C226.275 35.4159 226.158 34.7866 226.158 34.0933C226.158 33.3146 226.28 32.6053 226.526 31.9653C226.771 31.3253 227.075 30.7653 227.438 30.2853C227.8 29.7946 228.163 29.4159 228.526 29.1493C228.227 29.1813 227.864 29.2239 227.438 29.2773C227.022 29.3199 226.568 29.3733 226.078 29.4373C225.598 29.4906 225.107 29.5493 224.606 29.6133C224.104 29.6773 223.619 29.7519 223.15 29.8373C222.691 29.9119 222.275 29.9866 221.902 30.0613L221.694 27.8693ZM243.342 25.2933L244.51 26.4293C244.062 26.5573 243.56 26.6746 243.006 26.7813C242.462 26.8879 241.907 26.9733 241.342 27.0373C240.776 27.1013 240.232 27.1493 239.71 27.1813C239.678 27.0213 239.619 26.8293 239.534 26.6053C239.459 26.3706 239.374 26.1786 239.278 26.0293C239.768 25.9759 240.259 25.9173 240.75 25.8533C241.251 25.7786 241.726 25.6933 242.174 25.5973C242.632 25.5013 243.022 25.3999 243.342 25.2933ZM250.27 25.3093L251.438 26.4293C250.958 26.5786 250.424 26.7066 249.838 26.8133C249.251 26.9093 248.648 26.9893 248.03 27.0533C247.422 27.1173 246.835 27.1706 246.27 27.2133C246.238 27.0426 246.179 26.8453 246.094 26.6213C246.008 26.3866 245.928 26.1893 245.854 26.0293C246.376 25.9866 246.91 25.9279 247.454 25.8533C247.998 25.7786 248.515 25.6933 249.006 25.5973C249.507 25.5013 249.928 25.4053 250.27 25.3093ZM238.75 25.6453L240.814 26.1573C240.803 26.2853 240.675 26.3706 240.43 26.4133V27.1973C240.43 27.6133 240.382 28.0933 240.286 28.6373C240.19 29.1706 240.014 29.7093 239.758 30.2533C239.512 30.7866 239.144 31.2826 238.654 31.7413C238.568 31.6133 238.451 31.4746 238.302 31.3253C238.152 31.1653 237.998 31.0159 237.838 30.8773C237.678 30.7279 237.528 30.6159 237.39 30.5413C237.795 30.1893 238.088 29.8159 238.27 29.4213C238.462 29.0266 238.59 28.6319 238.654 28.2373C238.718 27.8319 238.75 27.4533 238.75 27.1013V25.6453ZM245.39 25.6613L247.438 26.1253C247.427 26.2746 247.299 26.3653 247.054 26.3973V27.2133C247.054 27.5866 247 28.0133 246.894 28.4933C246.787 28.9626 246.584 29.4319 246.286 29.9013C245.987 30.3599 245.555 30.7706 244.99 31.1333C244.926 31.0053 244.824 30.8613 244.686 30.7013C244.547 30.5306 244.403 30.3706 244.254 30.2213C244.104 30.0613 243.96 29.9439 243.822 29.8693C244.27 29.5919 244.6 29.2986 244.814 28.9893C245.038 28.6799 245.187 28.3653 245.262 28.0453C245.347 27.7253 245.39 27.4159 245.39 27.1173V25.6613ZM239.502 27.6773H244.83V29.0693H239.502V27.6773ZM246.094 27.6773H252.078V29.0693H246.094V27.6773ZM241.614 28.1413H243.31V30.7333H241.614V28.1413ZM248.334 28.1413H250.046V30.7493H248.334V28.1413ZM241.454 33.9653V34.6693H248.43V33.9653H241.454ZM241.454 35.7573V36.4613H248.43V35.7573H241.454ZM241.454 32.1893V32.8773H248.43V32.1893H241.454ZM239.598 31.0373H250.366V37.5973H239.598V31.0373ZM245.774 38.4453L247.374 37.5333C247.95 37.7359 248.531 37.9546 249.118 38.1893C249.715 38.4133 250.28 38.6426 250.814 38.8773C251.358 39.1013 251.816 39.3039 252.19 39.4853L249.95 40.3493C249.651 40.1786 249.278 39.9813 248.83 39.7573C248.382 39.5333 247.896 39.3039 247.374 39.0693C246.862 38.8453 246.328 38.6373 245.774 38.4453ZM242.238 37.4693L243.982 38.2693C243.555 38.5466 243.054 38.8186 242.478 39.0853C241.902 39.3519 241.31 39.5919 240.702 39.8053C240.094 40.0293 239.518 40.2159 238.974 40.3653C238.856 40.2373 238.712 40.0826 238.542 39.9013C238.382 39.7306 238.211 39.5546 238.03 39.3733C237.848 39.2026 237.688 39.0639 237.55 38.9573C238.115 38.8506 238.686 38.7226 239.262 38.5733C239.848 38.4239 240.398 38.2533 240.91 38.0613C241.432 37.8693 241.875 37.6719 242.238 37.4693ZM258.862 32.9893H264.27V38.0453H258.862V36.4773H262.462V34.5733H258.862V32.9893ZM258.03 32.9893H259.806V38.9573H258.03V32.9893ZM255.422 28.2213H259.422V29.5173H255.422V28.2213ZM262.846 28.2213H266.878V29.5173H262.846V28.2213ZM266.078 25.9013H268.03V38.0133C268.03 38.5466 267.966 38.9626 267.838 39.2613C267.71 39.5599 267.48 39.7893 267.15 39.9493C266.808 40.1093 266.382 40.2106 265.87 40.2533C265.358 40.2959 264.728 40.3173 263.982 40.3173C263.971 40.1253 263.928 39.9119 263.854 39.6773C263.779 39.4426 263.699 39.2026 263.614 38.9573C263.528 38.7226 263.432 38.5199 263.326 38.3493C263.646 38.3706 263.966 38.3866 264.286 38.3973C264.606 38.3973 264.888 38.3973 265.134 38.3973C265.39 38.3866 265.571 38.3813 265.678 38.3813C265.827 38.3813 265.928 38.3546 265.982 38.3013C266.046 38.2373 266.078 38.1306 266.078 37.9813V25.9013ZM255.566 25.9013H260.638V31.8853H255.566V30.4293H258.83V27.3573H255.566V25.9013ZM267.118 25.9013V27.3573H263.534V30.4613H267.118V31.9013H261.71V25.9013H267.118ZM254.478 25.9013H256.382V40.3173H254.478V25.9013ZM279.966 25.9813C279.955 26.0666 279.939 26.2053 279.918 26.3973C279.907 26.5786 279.896 26.7653 279.886 26.9573C279.875 27.1386 279.864 27.2719 279.854 27.3573C279.843 27.5706 279.838 27.8586 279.838 28.2213C279.838 28.5733 279.838 28.9679 279.838 29.4053C279.838 29.8426 279.838 30.2853 279.838 30.7333C279.848 31.1706 279.854 31.5866 279.854 31.9813C279.864 32.3653 279.87 32.6853 279.87 32.9413L277.87 32.2693C277.87 32.0666 277.87 31.7999 277.87 31.4693C277.87 31.1279 277.87 30.7599 277.87 30.3653C277.87 29.9599 277.864 29.5599 277.854 29.1653C277.854 28.7706 277.848 28.4133 277.838 28.0933C277.827 27.7733 277.816 27.5333 277.806 27.3733C277.784 27.0426 277.758 26.7546 277.726 26.5093C277.694 26.2533 277.667 26.0773 277.646 25.9813H279.966ZM270.926 27.9653C271.395 27.9653 271.928 27.9599 272.526 27.9493C273.123 27.9386 273.747 27.9279 274.398 27.9173C275.048 27.9066 275.688 27.8959 276.318 27.8853C276.947 27.8746 277.539 27.8693 278.094 27.8693C278.648 27.8586 279.128 27.8533 279.534 27.8533C279.939 27.8533 280.382 27.8533 280.862 27.8533C281.342 27.8426 281.816 27.8373 282.286 27.8373C282.755 27.8373 283.182 27.8373 283.566 27.8373C283.96 27.8373 284.264 27.8373 284.478 27.8373L284.462 29.7253C283.96 29.7039 283.299 29.6879 282.478 29.6773C281.656 29.6559 280.654 29.6453 279.47 29.6453C278.744 29.6453 278.008 29.6559 277.262 29.6773C276.515 29.6879 275.774 29.7039 275.038 29.7253C274.302 29.7466 273.592 29.7733 272.91 29.8053C272.227 29.8266 271.582 29.8586 270.974 29.9013L270.926 27.9653ZM279.582 32.7013C279.582 33.5759 279.475 34.3013 279.262 34.8773C279.059 35.4533 278.75 35.8906 278.334 36.1893C277.918 36.4773 277.4 36.6213 276.782 36.6213C276.483 36.6213 276.168 36.5573 275.838 36.4293C275.518 36.3013 275.219 36.1146 274.942 35.8693C274.664 35.6239 274.44 35.3199 274.27 34.9573C274.11 34.5946 274.03 34.1679 274.03 33.6773C274.03 33.0693 274.174 32.5466 274.462 32.1093C274.75 31.6613 275.134 31.3146 275.614 31.0693C276.104 30.8133 276.643 30.6853 277.23 30.6853C277.934 30.6853 278.52 30.8453 278.99 31.1653C279.47 31.4746 279.827 31.8959 280.062 32.4293C280.307 32.9626 280.43 33.5653 280.43 34.2373C280.43 34.7599 280.344 35.3039 280.174 35.8693C280.003 36.4346 279.72 36.9893 279.326 37.5333C278.942 38.0666 278.419 38.5519 277.758 38.9893C277.107 39.4266 276.291 39.7839 275.31 40.0613L273.598 38.3653C274.28 38.2266 274.915 38.0453 275.502 37.8213C276.088 37.5973 276.6 37.3146 277.038 36.9733C277.486 36.6319 277.832 36.2106 278.078 35.7093C278.334 35.2079 278.462 34.6053 278.462 33.9013C278.462 33.3893 278.334 33.0053 278.078 32.7493C277.832 32.4933 277.534 32.3653 277.182 32.3653C276.979 32.3653 276.782 32.4133 276.59 32.5093C276.398 32.6053 276.243 32.7493 276.126 32.9413C276.008 33.1333 275.95 33.3679 275.95 33.6453C275.95 34.0079 276.072 34.3013 276.318 34.5253C276.574 34.7386 276.862 34.8453 277.182 34.8453C277.438 34.8453 277.662 34.7653 277.854 34.6053C278.056 34.4453 278.19 34.1786 278.254 33.8053C278.318 33.4319 278.264 32.9306 278.094 32.3013L279.582 32.7013ZM289.358 26.6853C289.582 26.7173 289.822 26.7386 290.078 26.7493C290.334 26.7599 290.579 26.7653 290.814 26.7653C290.984 26.7653 291.24 26.7653 291.582 26.7653C291.923 26.7546 292.307 26.7439 292.734 26.7333C293.171 26.7226 293.603 26.7119 294.03 26.7013C294.456 26.6906 294.84 26.6799 295.182 26.6693C295.534 26.6479 295.806 26.6319 295.998 26.6213C296.328 26.5893 296.59 26.5626 296.782 26.5413C296.974 26.5093 297.118 26.4773 297.214 26.4453L298.254 27.8693C298.072 27.9866 297.886 28.1039 297.694 28.2213C297.502 28.3386 297.315 28.4666 297.134 28.6053C296.92 28.7546 296.664 28.9519 296.366 29.1973C296.067 29.4319 295.747 29.6826 295.406 29.9493C295.075 30.2159 294.75 30.4773 294.43 30.7333C294.12 30.9893 293.838 31.2186 293.582 31.4213C293.848 31.3573 294.104 31.3146 294.35 31.2933C294.595 31.2613 294.846 31.2453 295.102 31.2453C296.008 31.2453 296.819 31.4213 297.534 31.7733C298.259 32.1253 298.83 32.6053 299.246 33.2133C299.672 33.8106 299.886 34.4986 299.886 35.2773C299.886 36.1199 299.672 36.8826 299.246 37.5653C298.819 38.2479 298.174 38.7919 297.31 39.1973C296.456 39.6026 295.384 39.8053 294.094 39.8053C293.358 39.8053 292.691 39.6986 292.094 39.4853C291.507 39.2719 291.043 38.9679 290.702 38.5733C290.36 38.1786 290.19 37.7146 290.19 37.1813C290.19 36.7439 290.307 36.3386 290.542 35.9653C290.787 35.5813 291.123 35.2719 291.55 35.0373C291.987 34.8026 292.488 34.6853 293.054 34.6853C293.79 34.6853 294.408 34.8346 294.91 35.1333C295.422 35.4213 295.811 35.8106 296.078 36.3013C296.355 36.7919 296.499 37.3306 296.51 37.9173L294.638 38.1733C294.627 37.5866 294.478 37.1173 294.19 36.7653C293.912 36.4026 293.539 36.2213 293.07 36.2213C292.771 36.2213 292.531 36.3013 292.35 36.4613C292.168 36.6106 292.078 36.7866 292.078 36.9893C292.078 37.2879 292.227 37.5279 292.526 37.7093C292.824 37.8906 293.214 37.9813 293.694 37.9813C294.6 37.9813 295.358 37.8746 295.966 37.6613C296.574 37.4373 297.027 37.1226 297.326 36.7173C297.635 36.3013 297.79 35.8106 297.79 35.2453C297.79 34.7653 297.64 34.3439 297.342 33.9813C297.054 33.6186 296.659 33.3359 296.158 33.1333C295.656 32.9306 295.091 32.8293 294.462 32.8293C293.843 32.8293 293.278 32.9093 292.766 33.0693C292.254 33.2186 291.768 33.4373 291.31 33.7253C290.862 34.0026 290.419 34.3439 289.982 34.7493C289.555 35.1439 289.128 35.5866 288.702 36.0773L287.246 34.5733C287.534 34.3386 287.859 34.0773 288.222 33.7893C288.584 33.4906 288.952 33.1813 289.326 32.8613C289.71 32.5413 290.067 32.2426 290.398 31.9653C290.739 31.6773 291.027 31.4373 291.262 31.2453C291.486 31.0639 291.747 30.8506 292.046 30.6053C292.344 30.3599 292.654 30.1093 292.974 29.8533C293.294 29.5866 293.598 29.3359 293.886 29.1013C294.174 28.8559 294.414 28.6479 294.606 28.4773C294.446 28.4773 294.238 28.4826 293.982 28.4933C293.726 28.5039 293.443 28.5146 293.134 28.5253C292.835 28.5359 292.531 28.5466 292.222 28.5573C291.923 28.5679 291.64 28.5839 291.374 28.6053C291.118 28.6159 290.904 28.6266 290.734 28.6373C290.52 28.6479 290.296 28.6639 290.062 28.6853C289.827 28.7066 289.614 28.7333 289.422 28.7653L289.358 26.6853Z" fill="white"/>
</g>
<defs>
<filter id="filter0_d_20_10020" x="0" y="0" width="322" height="65.7545" filterUnits="userSpaceOnUse" color-interpolation-filters="sRGB">
<feFlood flood-opacity="0" result="BackgroundImageFix"/>
<feColorMatrix in="SourceAlpha" type="matrix" values="0 0 0 0 0 0 0 0 0 0 0 0 0 0 0 0 0 0 127 0" result="hardAlpha"/>
<feOffset/>
<feGaussianBlur stdDeviation="2"/>
<feComposite in2="hardAlpha" operator="out"/>
<feColorMatrix type="matrix" values="0 0 0 0 0 0 0 0 0 0 0 0 0 0 0 0 0 0 0.2 0"/>
<feBlend mode="normal" in2="BackgroundImageFix" result="effect1_dropShadow_20_10020"/>
<feBlend mode="normal" in="SourceGraphic" in2="effect1_dropShadow_20_10020" result="shape"/>
</filter>
<clipPath id="clip0_20_10020">
<rect width="48" height="33.7545" fill="white" transform="translate(20 16)"/>
</clipPath>
</defs>
</svg>
