<svg width="113" height="87" viewBox="0 0 113 87" fill="none" xmlns="http://www.w3.org/2000/svg">
<g filter="url(#filter0_d_20_8004)">
<path d="M4 43.2837C4 21.5879 21.5879 4 43.2837 4H109V82.5674H43.2837C21.5879 82.5674 4 64.9795 4 43.2837Z" fill="#13ADAD" shape-rendering="crispEdges"/>
<g clip-path="url(#clip0_20_8004)">
<path d="M50.909 16C41.8616 16 34.5 22.9191 34.5 31.4244C34.5 37.4831 38.2987 43.0061 44.1783 45.4947L44.2304 52.1121C44.2322 52.2858 44.331 52.4449 44.4882 52.5208C44.5522 52.5519 44.6217 52.5674 44.6903 52.5674C44.789 52.5674 44.8877 52.5354 44.9691 52.4732L52.4267 46.782C56.4832 46.4318 60.2399 44.6792 63.0046 41.8469C65.7867 38.9962 67.319 35.2944 67.319 31.4235C67.319 22.9191 59.9574 16 50.909 16ZM61.1624 40.0494C58.8283 42.4411 55.6476 43.9213 52.2054 44.2175L51.4603 44.2815L46.7702 47.8608L46.7382 43.7833L45.1812 43.1241C40.2561 41.0387 37.0736 36.4464 37.0736 31.4235C37.0736 24.338 43.2805 18.5736 50.909 18.5736C58.5376 18.5736 64.7453 24.3389 64.7453 31.4244C64.7453 34.6197 63.4727 37.6834 61.1624 40.0504V40.0494Z" fill="white"/>
<path d="M58.142 31.3293C58.142 27.3413 54.8982 24.0975 50.9102 24.0975C46.9222 24.0975 43.6785 27.3422 43.6785 31.3293C43.6785 35.3163 46.9232 38.561 50.9102 38.561C52.1518 38.561 53.3202 38.2465 54.3423 37.6934C55.0262 38.0436 55.8134 38.3453 56.7093 38.5354L57.2021 36.2141C56.9297 36.1565 56.67 36.0843 56.4241 36.002C57.4947 34.7404 58.142 33.1093 58.142 31.3293ZM50.9093 36.1876C48.2296 36.1876 46.05 34.008 46.05 31.3284C46.05 28.6487 48.2296 26.4691 50.9093 26.4691C53.589 26.4691 55.7686 28.6487 55.7686 31.3284C55.7686 32.708 55.1898 33.9541 54.2637 34.8391C53.376 34.1516 52.9261 33.4897 52.9188 33.4778L51.9278 34.1287L50.9322 34.7751C50.9651 34.8263 51.3308 35.3776 52.0393 36.0541C51.6773 36.141 51.2997 36.1876 50.9111 36.1876H50.9093Z" fill="white"/>
<path d="M76.1169 33.5664H77.6766L76.8967 31.9299L76.1169 33.5664Z" fill="white"/>
<path d="M71.8671 19.1093C69.7213 19.1093 67.6826 19.5454 65.8449 20.329C68.3783 23.3881 69.8914 27.2416 69.8914 31.4243C69.8914 35.9709 68.0995 40.3109 64.8456 43.6452C64.5713 43.9258 64.2888 44.1974 63.9981 44.4598C65.9473 45.63 68.1744 46.3559 70.514 46.558L77.0847 51.5727C77.1661 51.6348 77.2648 51.6668 77.3636 51.6668C77.4322 51.6668 77.5016 51.6513 77.5656 51.6202C77.722 51.5434 77.8216 51.3852 77.8235 51.2115L77.8692 45.4106C83.1115 43.1908 86.4988 38.2666 86.4988 32.8634C86.4988 25.2796 79.9354 19.1093 71.8671 19.1093ZM79.9619 38.3654L78.6426 35.5961H75.1493L73.83 38.3654L71.9978 37.4922L76.8964 27.2051L81.795 37.4922L79.9628 38.3654H79.9619Z" fill="white"/>
</g>
<path d="M25.2908 61.8754C25.5308 61.8994 25.7828 61.9194 26.0468 61.9354C26.3188 61.9434 26.5748 61.9474 26.8148 61.9474C27.2788 61.9474 27.7508 61.9274 28.2308 61.8874C28.7188 61.8394 29.1988 61.7714 29.6708 61.6834C30.1508 61.5874 30.6068 61.4714 31.0388 61.3354L31.0748 62.4394C30.7068 62.5434 30.2868 62.6394 29.8148 62.7274C29.3428 62.8154 28.8508 62.8874 28.3388 62.9434C27.8268 62.9994 27.3188 63.0274 26.8148 63.0274C26.5908 63.0274 26.3548 63.0234 26.1068 63.0154C25.8588 63.0074 25.6148 62.9994 25.3748 62.9914L25.2908 61.8754ZM29.7188 59.9794C29.6708 60.1794 29.6068 60.4314 29.5268 60.7354C29.4548 61.0394 29.3708 61.3594 29.2748 61.6954C29.1868 62.0314 29.0948 62.3554 28.9988 62.6674C28.8068 63.2434 28.5668 63.8554 28.2788 64.5034C27.9908 65.1434 27.6788 65.7674 27.3428 66.3754C27.0068 66.9834 26.6668 67.5154 26.3228 67.9714L25.1708 67.3834C25.4428 67.0554 25.7108 66.6914 25.9748 66.2914C26.2388 65.8834 26.4868 65.4634 26.7188 65.0314C26.9588 64.5914 27.1748 64.1674 27.3668 63.7594C27.5588 63.3434 27.7148 62.9634 27.8348 62.6194C27.9708 62.2194 28.0948 61.7674 28.2068 61.2634C28.3188 60.7594 28.3828 60.2874 28.3988 59.8474L29.7188 59.9794ZM32.5388 63.6994C32.5308 63.9474 32.5268 64.1834 32.5268 64.4074C32.5268 64.6314 32.5308 64.8634 32.5388 65.1034C32.5468 65.2874 32.5548 65.5274 32.5628 65.8234C32.5788 66.1114 32.5948 66.4194 32.6108 66.7474C32.6268 67.0754 32.6388 67.3874 32.6468 67.6834C32.6628 67.9794 32.6708 68.2194 32.6708 68.4034C32.6708 68.7394 32.5948 69.0474 32.4428 69.3274C32.2988 69.6074 32.0668 69.8314 31.7468 69.9994C31.4268 70.1674 31.0028 70.2514 30.4748 70.2514C30.0108 70.2514 29.5868 70.1834 29.2028 70.0474C28.8268 69.9114 28.5228 69.7074 28.2908 69.4354C28.0668 69.1634 27.9548 68.8194 27.9548 68.4034C27.9548 68.0274 28.0588 67.6954 28.2668 67.4074C28.4828 67.1194 28.7788 66.8954 29.1548 66.7354C29.5308 66.5674 29.9668 66.4834 30.4628 66.4834C31.1508 66.4834 31.7828 66.5834 32.3588 66.7834C32.9348 66.9754 33.4508 67.2194 33.9068 67.5154C34.3708 67.8034 34.7708 68.0954 35.1068 68.3914L34.4708 69.4114C34.2388 69.2034 33.9828 68.9874 33.7028 68.7634C33.4228 68.5314 33.1108 68.3194 32.7668 68.1274C32.4308 67.9274 32.0628 67.7634 31.6628 67.6354C31.2708 67.5074 30.8508 67.4434 30.4028 67.4434C30.0028 67.4434 29.6788 67.5234 29.4308 67.6834C29.1908 67.8434 29.0708 68.0474 29.0708 68.2954C29.0708 68.5514 29.1748 68.7594 29.3828 68.9194C29.5988 69.0794 29.9108 69.1594 30.3188 69.1594C30.6228 69.1594 30.8628 69.1114 31.0388 69.0154C31.2228 68.9114 31.3508 68.7714 31.4228 68.5954C31.4948 68.4194 31.5308 68.2234 31.5308 68.0074C31.5308 67.7994 31.5228 67.5194 31.5068 67.1674C31.4988 66.8154 31.4828 66.4354 31.4588 66.0274C31.4428 65.6194 31.4228 65.2114 31.3988 64.8034C31.3828 64.3874 31.3708 64.0194 31.3628 63.6994H32.5388ZM34.7948 64.1554C34.5708 63.9714 34.2908 63.7754 33.9548 63.5674C33.6188 63.3514 33.2748 63.1474 32.9228 62.9554C32.5708 62.7554 32.2588 62.5954 31.9868 62.4754L32.5988 61.5514C32.8148 61.6474 33.0588 61.7634 33.3308 61.8994C33.6028 62.0354 33.8748 62.1794 34.1468 62.3314C34.4188 62.4834 34.6708 62.6354 34.9028 62.7874C35.1348 62.9314 35.3268 63.0554 35.4788 63.1594L34.7948 64.1554ZM43.1588 60.6514C43.1028 60.7314 43.0428 60.8234 42.9788 60.9274C42.9148 61.0234 42.8468 61.1274 42.7748 61.2394C42.6388 61.4474 42.4788 61.7074 42.2948 62.0194C42.1108 62.3234 41.9188 62.6514 41.7188 63.0034C41.5188 63.3554 41.3228 63.7034 41.1308 64.0474C40.9388 64.3914 40.7708 64.7034 40.6268 64.9834C40.8828 64.7834 41.1468 64.6394 41.4188 64.5514C41.6988 64.4554 41.9668 64.4074 42.2228 64.4074C42.6468 64.4074 42.9868 64.5394 43.2428 64.8034C43.5068 65.0594 43.6508 65.4314 43.6748 65.9194C43.6828 66.1274 43.6868 66.3634 43.6868 66.6274C43.6868 66.8834 43.6868 67.1354 43.6868 67.3834C43.6948 67.6314 43.7068 67.8474 43.7228 68.0314C43.7388 68.3114 43.8308 68.5114 43.9988 68.6314C44.1748 68.7434 44.3748 68.7994 44.5988 68.7994C44.9028 68.7994 45.1748 68.7154 45.4148 68.5474C45.6628 68.3794 45.8788 68.1554 46.0628 67.8754C46.2548 67.5874 46.4148 67.2754 46.5428 66.9394C46.6788 66.5954 46.7868 66.2514 46.8668 65.9074L47.8748 66.7354C47.6668 67.3994 47.4068 67.9834 47.0948 68.4874C46.7828 68.9834 46.4068 69.3714 45.9668 69.6514C45.5268 69.9394 45.0068 70.0834 44.4068 70.0834C43.9748 70.0834 43.6228 70.0034 43.3508 69.8434C43.0868 69.6834 42.8908 69.4834 42.7628 69.2434C42.6428 69.0034 42.5748 68.7554 42.5588 68.4994C42.5428 68.2674 42.5308 68.0194 42.5228 67.7554C42.5228 67.4834 42.5188 67.2194 42.5108 66.9634C42.5108 66.6994 42.5028 66.4714 42.4868 66.2794C42.4788 66.0394 42.4068 65.8554 42.2708 65.7274C42.1348 65.5914 41.9428 65.5234 41.6948 65.5234C41.3988 65.5234 41.1108 65.6114 40.8308 65.7874C40.5588 65.9634 40.3108 66.1954 40.0868 66.4834C39.8708 66.7714 39.6868 67.0754 39.5348 67.3954C39.4468 67.5714 39.3548 67.7834 39.2588 68.0314C39.1628 68.2714 39.0668 68.5234 38.9708 68.7874C38.8828 69.0434 38.8028 69.2874 38.7308 69.5194C38.6588 69.7514 38.5988 69.9434 38.5508 70.0954L37.2308 69.6514C37.3828 69.2434 37.5708 68.7834 37.7948 68.2714C38.0188 67.7514 38.2668 67.2074 38.5388 66.6394C38.8108 66.0634 39.0868 65.4954 39.3668 64.9354C39.6468 64.3754 39.9148 63.8434 40.1708 63.3394C40.4268 62.8354 40.6548 62.3954 40.8548 62.0194C41.0548 61.6434 41.2068 61.3594 41.3108 61.1674C41.3908 61.0234 41.4748 60.8674 41.5628 60.6994C41.6508 60.5234 41.7348 60.3274 41.8148 60.1114L43.1588 60.6514ZM48.9812 61.5274C49.2132 61.5194 49.4252 61.5114 49.6172 61.5034C49.8172 61.4874 49.9772 61.4754 50.0972 61.4674C50.3132 61.4434 50.6012 61.4154 50.9612 61.3834C51.3292 61.3434 51.7452 61.3034 52.2092 61.2634C52.6732 61.2234 53.1692 61.1794 53.6972 61.1314C54.2252 61.0834 54.7652 61.0354 55.3172 60.9874C55.7412 60.9554 56.1532 60.9274 56.5532 60.9034C56.9612 60.8714 57.3412 60.8474 57.6932 60.8314C58.0452 60.8074 58.3572 60.7914 58.6292 60.7834V61.9954C58.4052 61.9874 58.1492 61.9874 57.8612 61.9954C57.5812 62.0034 57.3012 62.0194 57.0212 62.0434C56.7492 62.0674 56.5052 62.1074 56.2892 62.1634C55.8972 62.2834 55.5372 62.4714 55.2092 62.7274C54.8812 62.9834 54.5972 63.2794 54.3572 63.6154C54.1252 63.9514 53.9452 64.3074 53.8172 64.6834C53.6972 65.0594 53.6372 65.4234 53.6372 65.7754C53.6372 66.2154 53.7092 66.5994 53.8532 66.9274C54.0052 67.2474 54.2132 67.5234 54.4772 67.7554C54.7412 67.9794 55.0452 68.1674 55.3892 68.3194C55.7332 68.4634 56.0972 68.5714 56.4812 68.6434C56.8732 68.7154 57.2652 68.7594 57.6572 68.7754L57.2252 70.0594C56.7532 70.0354 56.2852 69.9634 55.8212 69.8434C55.3572 69.7314 54.9212 69.5714 54.5132 69.3634C54.1052 69.1474 53.7412 68.8794 53.4212 68.5594C53.1092 68.2394 52.8612 67.8714 52.6772 67.4554C52.5012 67.0394 52.4132 66.5674 52.4132 66.0394C52.4132 65.4314 52.5132 64.8714 52.7132 64.3594C52.9212 63.8474 53.1812 63.4034 53.4932 63.0274C53.8052 62.6434 54.1252 62.3474 54.4532 62.1394C54.2132 62.1634 53.9172 62.1954 53.5652 62.2354C53.2132 62.2674 52.8332 62.3074 52.4252 62.3554C52.0252 62.4034 51.6212 62.4554 51.2132 62.5114C50.8052 62.5594 50.4172 62.6114 50.0492 62.6674C49.6892 62.7234 49.3732 62.7794 49.1012 62.8354L48.9812 61.5274ZM56.9012 63.3274C56.9972 63.4634 57.1052 63.6314 57.2252 63.8314C57.3452 64.0234 57.4652 64.2234 57.5852 64.4314C57.7052 64.6314 57.8052 64.8154 57.8852 64.9834L57.1412 65.3194C56.9972 65.0154 56.8452 64.7234 56.6852 64.4434C56.5332 64.1634 56.3652 63.8954 56.1812 63.6394L56.9012 63.3274ZM58.2332 62.8114C58.3292 62.9474 58.4412 63.1114 58.5692 63.3034C58.6972 63.4874 58.8212 63.6794 58.9412 63.8794C59.0612 64.0794 59.1652 64.2674 59.2532 64.4434L58.5212 64.7914C58.3612 64.4874 58.2012 64.2034 58.0412 63.9394C57.8812 63.6674 57.7052 63.3994 57.5132 63.1354L58.2332 62.8114ZM65.7692 60.0514C65.7292 60.2354 65.6932 60.4034 65.6612 60.5554C65.6372 60.7074 65.6132 60.8554 65.5892 60.9994C65.5652 61.1994 65.5292 61.4634 65.4812 61.7914C65.4412 62.1114 65.3932 62.4714 65.3372 62.8714C65.2812 63.2714 65.2292 63.6834 65.1812 64.1074C65.1332 64.5314 65.0852 64.9474 65.0372 65.3554C64.9892 65.7554 64.9532 66.1234 64.9292 66.4594C64.9052 66.7874 64.8932 67.0554 64.8932 67.2634C64.8932 67.8074 65.0492 68.2314 65.3612 68.5354C65.6812 68.8394 66.1652 68.9914 66.8132 68.9914C67.3972 68.9914 67.8972 68.9114 68.3132 68.7514C68.7372 68.5914 69.0612 68.3674 69.2852 68.0794C69.5092 67.7914 69.6212 67.4594 69.6212 67.0834C69.6212 66.6754 69.5132 66.2674 69.2972 65.8594C69.0892 65.4514 68.7732 65.0594 68.3492 64.6834L69.6812 64.4074C70.0812 64.8794 70.3812 65.3394 70.5812 65.7874C70.7812 66.2274 70.8812 66.7074 70.8812 67.2274C70.8812 67.8194 70.7092 68.3394 70.3652 68.7874C70.0292 69.2354 69.5572 69.5834 68.9492 69.8314C68.3412 70.0794 67.6212 70.2034 66.7892 70.2034C66.2052 70.2034 65.6812 70.1114 65.2172 69.9274C64.7532 69.7434 64.3852 69.4514 64.1132 69.0514C63.8492 68.6514 63.7172 68.1194 63.7172 67.4554C63.7172 67.2074 63.7372 66.8754 63.7772 66.4594C63.8172 66.0434 63.8652 65.5874 63.9212 65.0914C63.9852 64.5954 64.0492 64.0914 64.1132 63.5794C64.1852 63.0594 64.2452 62.5714 64.2932 62.1154C64.3492 61.6514 64.3892 61.2554 64.4132 60.9274C64.4372 60.6874 64.4492 60.4994 64.4492 60.3634C64.4492 60.2274 64.4412 60.0994 64.4252 59.9794L65.7692 60.0514ZM61.7372 61.5994C62.0812 61.7114 62.4612 61.8034 62.8772 61.8754C63.2932 61.9474 63.7172 62.0034 64.1492 62.0434C64.5812 62.0754 64.9852 62.0914 65.3612 62.0914C65.8252 62.0914 66.2612 62.0794 66.6692 62.0554C67.0772 62.0234 67.4452 61.9834 67.7732 61.9354L67.7372 63.0634C67.3612 63.0954 66.9892 63.1234 66.6212 63.1474C66.2532 63.1714 65.8212 63.1834 65.3252 63.1834C64.9572 63.1834 64.5572 63.1634 64.1252 63.1234C63.7012 63.0834 63.2772 63.0274 62.8532 62.9554C62.4292 62.8754 62.0372 62.7914 61.6772 62.7034L61.7372 61.5994ZM61.4612 64.5874C61.8692 64.7234 62.2892 64.8314 62.7212 64.9114C63.1532 64.9914 63.5812 65.0474 64.0052 65.0794C64.4372 65.1034 64.8452 65.1154 65.2292 65.1154C65.6212 65.1154 66.0252 65.1034 66.4412 65.0794C66.8652 65.0554 67.2812 65.0194 67.6892 64.9714L67.6532 66.0994C67.2852 66.1394 66.9172 66.1714 66.5492 66.1954C66.1812 66.2114 65.8012 66.2194 65.4092 66.2194C64.6892 66.2194 63.9772 66.1794 63.2732 66.0994C62.5692 66.0114 61.9452 65.8914 61.4012 65.7394L61.4612 64.5874ZM78.7412 62.9674H83.1812V64.0114H78.7412V62.9674ZM78.7532 65.8474H83.1932V66.8794H78.7532V65.8474ZM78.7532 68.7274H83.1812V69.7714H78.7532V68.7274ZM78.2012 60.1114H83.7212V70.4314H82.5812V61.1914H79.2932V70.4914H78.2012V60.1114ZM73.1492 61.9714H77.7092V63.0514H73.1492V61.9714ZM74.9972 59.4394H76.0892V70.5634H74.9972V59.4394ZM74.9492 62.6674L75.6572 62.9194C75.5452 63.4074 75.4132 63.9114 75.2612 64.4314C75.1092 64.9434 74.9332 65.4474 74.7332 65.9434C74.5412 66.4314 74.3332 66.8914 74.1092 67.3234C73.8932 67.7474 73.6652 68.1114 73.4252 68.4154C73.3612 68.2554 73.2732 68.0754 73.1612 67.8754C73.0492 67.6754 72.9492 67.5034 72.8612 67.3594C73.0772 67.0954 73.2892 66.7834 73.4972 66.4234C73.7132 66.0554 73.9132 65.6634 74.0972 65.2474C74.2812 64.8234 74.4452 64.3914 74.5892 63.9514C74.7412 63.5114 74.8612 63.0834 74.9492 62.6674ZM76.0052 63.8794C76.0932 63.9594 76.2212 64.0994 76.3892 64.2994C76.5652 64.4914 76.7492 64.7034 76.9412 64.9354C77.1412 65.1594 77.3212 65.3714 77.4812 65.5714C77.6492 65.7634 77.7652 65.9034 77.8292 65.9914L77.1572 66.9154C77.0772 66.7554 76.9612 66.5634 76.8092 66.3394C76.6652 66.1074 76.5092 65.8674 76.3412 65.6194C76.1732 65.3714 76.0092 65.1434 75.8492 64.9354C75.6892 64.7194 75.5572 64.5434 75.4532 64.4074L76.0052 63.8794ZM92.3492 62.6314L93.0572 61.8754C93.4172 62.0834 93.8052 62.3154 94.2212 62.5714C94.6372 62.8274 95.0332 63.0874 95.4092 63.3514C95.7852 63.6074 96.0932 63.8394 96.3332 64.0474L95.5892 64.8994C95.3652 64.6914 95.0652 64.4514 94.6892 64.1794C94.3212 63.9074 93.9292 63.6354 93.5132 63.3634C93.1052 63.0914 92.7172 62.8474 92.3492 62.6314ZM93.0692 64.4674H93.6452V66.2434C93.6452 66.3874 93.6652 66.5714 93.7052 66.7954C93.7532 67.0114 93.8332 67.2474 93.9452 67.5034C94.0652 67.7514 94.2292 68.0074 94.4372 68.2714C94.6532 68.5274 94.9252 68.7754 95.2532 69.0154C95.5892 69.2474 95.9932 69.4514 96.4652 69.6274C96.3612 69.7554 96.2412 69.9114 96.1052 70.0954C95.9772 70.2874 95.8732 70.4514 95.7932 70.5874C95.3692 70.4274 94.9972 70.2234 94.6772 69.9754C94.3572 69.7274 94.0852 69.4674 93.8612 69.1954C93.6452 68.9154 93.4692 68.6474 93.3332 68.3914C93.2052 68.1354 93.1172 67.9154 93.0692 67.7314C93.0132 67.9154 92.9132 68.1354 92.7692 68.3914C92.6332 68.6394 92.4412 68.9034 92.1932 69.1834C91.9452 69.4554 91.6452 69.7114 91.2932 69.9514C90.9412 70.1994 90.5252 70.4114 90.0452 70.5874C89.9972 70.4994 89.9372 70.3994 89.8652 70.2874C89.7932 70.1754 89.7132 70.0634 89.6252 69.9514C89.5452 69.8394 89.4692 69.7474 89.3972 69.6754C89.9172 69.4914 90.3572 69.2794 90.7172 69.0394C91.0772 68.7994 91.3732 68.5474 91.6052 68.2834C91.8372 68.0194 92.0172 67.7634 92.1452 67.5154C92.2732 67.2594 92.3612 67.0234 92.4092 66.8074C92.4652 66.5834 92.4932 66.3954 92.4932 66.2434V64.4674H93.0692ZM92.5772 59.4394H93.6932C93.6612 60.1594 93.5972 60.8114 93.5012 61.3954C93.4052 61.9714 93.2412 62.4874 93.0092 62.9434C92.7852 63.3994 92.4572 63.7994 92.0252 64.1434C91.6012 64.4794 91.0412 64.7634 90.3452 64.9954C90.2892 64.8674 90.1972 64.7114 90.0692 64.5274C89.9492 64.3434 89.8292 64.1994 89.7092 64.0954C90.3332 63.9114 90.8292 63.6794 91.1972 63.3994C91.5652 63.1194 91.8452 62.7914 92.0372 62.4154C92.2292 62.0394 92.3612 61.6074 92.4332 61.1194C92.5052 60.6234 92.5532 60.0634 92.5772 59.4394ZM90.8012 60.1954L91.7492 60.3874C91.6932 60.7874 91.5812 61.1914 91.4132 61.5994C91.2532 61.9994 91.0372 62.3314 90.7652 62.5954L89.8772 62.1874C90.1172 61.9714 90.3172 61.6834 90.4772 61.3234C90.6372 60.9554 90.7452 60.5794 90.8012 60.1954ZM90.6812 65.3914L91.6772 65.5834C91.5972 66.0474 91.4612 66.4994 91.2692 66.9394C91.0772 67.3714 90.8212 67.7234 90.5012 67.9954L89.5892 67.5034C89.8692 67.2794 90.1012 66.9754 90.2852 66.5914C90.4692 66.1994 90.6012 65.7994 90.6812 65.3914ZM95.0732 60.1354L96.1652 60.4954C95.9652 60.8394 95.7572 61.1874 95.5412 61.5394C95.3332 61.8834 95.1452 62.1794 94.9772 62.4274L94.1252 62.0914C94.2372 61.9154 94.3532 61.7154 94.4732 61.4914C94.5932 61.2594 94.7052 61.0234 94.8092 60.7834C94.9212 60.5434 95.0092 60.3274 95.0732 60.1354ZM95.1812 65.2954L96.2852 65.6674C96.0772 66.0354 95.8572 66.4114 95.6252 66.7954C95.4012 67.1714 95.1892 67.4874 94.9892 67.7434L94.1252 67.4074C94.2452 67.2154 94.3692 66.9994 94.4972 66.7594C94.6332 66.5114 94.7572 66.2594 94.8692 66.0034C94.9892 65.7474 95.0932 65.5114 95.1812 65.2954ZM85.7852 63.0874H89.3492V63.9634H85.7852V63.0874ZM85.8212 59.8354H89.3012V60.7234H85.8212V59.8354ZM85.7852 64.7074H89.3492V65.5834H85.7852V64.7074ZM85.2212 61.4314H89.7452V62.3434H85.2212V61.4314ZM86.2772 66.3514H89.3612V69.9154H86.2772V69.0034H88.3772V67.2634H86.2772V66.3514ZM85.7612 66.3514H86.7332V70.4314H85.7612V66.3514Z" fill="white"/>
</g>
<defs>
<filter id="filter0_d_20_8004" x="0" y="0" width="113" height="86.5674" filterUnits="userSpaceOnUse" color-interpolation-filters="sRGB">
<feFlood flood-opacity="0" result="BackgroundImageFix"/>
<feColorMatrix in="SourceAlpha" type="matrix" values="0 0 0 0 0 0 0 0 0 0 0 0 0 0 0 0 0 0 127 0" result="hardAlpha"/>
<feOffset/>
<feGaussianBlur stdDeviation="2"/>
<feComposite in2="hardAlpha" operator="out"/>
<feColorMatrix type="matrix" values="0 0 0 0 0 0 0 0 0 0 0 0 0 0 0 0 0 0 0.2 0"/>
<feBlend mode="normal" in2="BackgroundImageFix" result="effect1_dropShadow_20_8004"/>
<feBlend mode="normal" in="SourceGraphic" in2="effect1_dropShadow_20_8004" result="shape"/>
</filter>
<clipPath id="clip0_20_8004">
<rect width="52" height="36.5674" fill="white" transform="translate(34.5 16)"/>
</clipPath>
</defs>
</svg>
