<svg width="52" height="52" viewBox="0 0 52 52" fill="none" xmlns="http://www.w3.org/2000/svg">
<path d="M12.9189 10.7523C20.1436 3.52759 31.8571 3.52757 39.082 10.7523C46.3062 17.977 46.3065 29.6906 39.082 36.9154L27.4141 48.5824C26.6331 49.3631 25.3669 49.3631 24.5859 48.5824L12.9189 36.9154C5.69423 29.6905 5.69425 17.977 12.9189 10.7523Z" fill="#707A8B" stroke="white" stroke-width="2"/>
<g clip-path="url(#clip0_20_5941)">
<path d="M32.7092 30.9142H32.7033V15.6167C32.7033 15.29 32.4384 15.0251 32.1117 15.0251H20.3883C20.0616 15.0251 19.7967 15.29 19.7967 15.6167V30.9142H17.9224L17.9109 30.9141V30.9142H17.9051V33.4614V33.4692V33.4751H34.5949V30.9142H32.7092ZM30.7177 21.0337H29.2284V18.1379H30.7177V21.0337ZM30.7177 25.102H29.2284V22.2062H30.7177V25.102ZM29.2284 27.9008V26.7011H30.7177V27.9008H29.2318H29.2284ZM27.491 18.1379V21.0337H25.0108H25.009V18.1379H27.4892H27.491ZM25.009 25.102V22.2062H27.491V25.102H25.0108H25.009ZM27.491 26.7011V31.9031H25.009V26.7011H27.491ZM21.7823 27.9008V26.7011H23.2715V27.9008H21.7857H21.7823ZM23.2715 25.102H21.7823V22.2062H23.2715V25.0989V25.102ZM23.2715 21.0337H21.7823V18.1379H23.2715V21.0306V21.0337Z" fill="white"/>
</g>
<defs>
<clipPath id="clip0_20_5941">
<rect width="18.45" height="18.45" fill="white" transform="translate(17.0248 15.0251)"/>
</clipPath>
</defs>
</svg>
