<svg width="52" height="52" viewBox="0 0 52 52" fill="none" xmlns="http://www.w3.org/2000/svg">
<path d="M12.9189 10.7523C20.1436 3.52758 31.8571 3.52756 39.082 10.7523C46.3062 17.977 46.3065 29.6906 39.082 36.9154L27.4141 48.5824C26.6331 49.3631 25.3669 49.3631 24.5859 48.5824L12.9189 36.9154C5.69423 29.6905 5.69425 17.977 12.9189 10.7523Z" fill="#12A364" stroke="white" stroke-width="2"/>
<path d="M25.9998 12.0463L16 17.397V34.1389H36V17.397L25.9998 12.0463ZM22.6906 18.7388C22.7309 17.9671 23.3673 17.3625 24.1394 17.3625C24.165 17.3625 24.1909 17.3632 24.2169 17.3644C25.0165 17.4063 25.6331 18.0911 25.5913 18.8907C25.551 19.6624 24.9146 20.2671 24.1425 20.2671C24.1169 20.2671 24.0909 20.2663 24.065 20.2651C23.6774 20.245 23.3212 20.0748 23.0615 19.7865C22.8018 19.4981 22.67 19.126 22.6906 18.7388ZM22.2386 32.0133C22.0914 32.1723 21.8917 32.2591 21.6762 32.2591C21.4825 32.2591 21.2972 32.1862 21.1553 32.0544C20.865 31.7851 20.8301 31.3296 21.0759 31.0172L25.5723 25.3383L24.7754 23.4255L23.546 24.4755C23.4382 24.5678 23.2995 24.6185 23.1561 24.6185C23.1332 24.6185 23.1099 24.6174 23.0875 24.6147L20.396 24.2968C20.2395 24.2782 20.0995 24.1999 20.0019 24.0763C19.9042 23.9527 19.8608 23.7984 19.879 23.6418C19.9135 23.3484 20.1623 23.1244 20.4573 23.1209L22.758 23.0914L23.9836 21.6387C24.5878 20.9186 25.2107 20.569 25.8882 20.569C25.9242 20.569 25.9607 20.5702 25.9971 20.5717L27.1219 20.6349L28.9606 20.7415C29.187 20.7547 29.3978 20.8775 29.5242 21.0702L30.9784 23.3186C31.1846 23.6372 31.0927 24.0643 30.7741 24.2701C30.6633 24.3418 30.535 24.3798 30.4028 24.3798C30.1869 24.3798 29.9807 24.2778 29.8509 24.1069L28.4757 22.2868L27.3955 22.224L28.1005 25.2216C28.0513 25.5708 27.8982 25.8228 27.668 26.1135C27.2719 26.6146 26.7126 27.2491 26.3138 27.6929L22.2386 32.0133ZM32.1241 29.3254C32.1043 29.6998 31.8055 29.9975 31.4295 30.018L28.3719 30.1739C28.3579 30.1746 28.3443 30.175 28.3304 30.175C28.0346 30.175 27.7649 30.0122 27.6265 29.7498L27.5405 29.5855L26.8552 28.2797C27.232 27.8627 27.8668 27.1476 28.3172 26.5778C28.3529 26.5324 28.3866 26.4887 28.418 26.4456L29.042 28.4274L31.4307 28.5545C31.8342 28.5758 32.1454 28.9219 32.1241 29.3254Z" fill="white"/>
</svg>
