<svg width="52" height="52" viewBox="0 0 52 52" fill="none" xmlns="http://www.w3.org/2000/svg">
<path d="M12.9189 10.7523C20.1436 3.52758 31.8571 3.52756 39.082 10.7523C46.3062 17.977 46.3065 29.6906 39.082 36.9154L27.4141 48.5824C26.6331 49.3631 25.3669 49.3631 24.5859 48.5824L12.9189 36.9154C5.69423 29.6905 5.69425 17.977 12.9189 10.7523Z" fill="#32ACCA" stroke="white" stroke-width="2"/>
<path d="M31.1883 21.4744L25.9997 14L20.8117 21.4744C18.7072 24.7727 17.9461 28.9854 20.8117 31.851C22.2442 33.2834 24.1216 34 25.9997 34C27.8777 34 29.7552 33.2834 31.1883 31.8509C34.0533 28.9854 33.2928 24.7727 31.1883 21.4744ZM21.2011 29.3607C19.8546 26.6178 21.9988 22.678 23.3459 21.182C23.3459 21.182 21.9494 24.9222 23.7944 28.6631C24.7515 30.6034 22.7044 32.4241 21.2011 29.3607Z" fill="white"/>
</svg>
