<svg width="52" height="52" viewBox="0 0 52 52" fill="none" xmlns="http://www.w3.org/2000/svg">
<path d="M12.9189 10.7523C20.1436 3.52759 31.8571 3.52757 39.082 10.7523C46.3062 17.977 46.3065 29.6906 39.082 36.9154L27.4141 48.5824C26.6331 49.3631 25.3669 49.3631 24.5859 48.5824L12.9189 36.9154C5.69423 29.6905 5.69425 17.977 12.9189 10.7523Z" fill="#4978CF" stroke="white" stroke-width="2"/>
<path d="M32.9218 22.0274L30.2152 19.3229L28.0669 17.1774L26.0035 15.1064L16 25.1023L17.4816 26.5829L26.0035 18.0681L34.5184 26.5829L36 25.1023L32.9218 22.0274Z" fill="white"/>
<path d="M19.0782 26.1913V32.8936H24.3591V28.384H27.6409V32.8936H32.9218V26.1908L26.0035 19.2719L19.0782 26.1913Z" fill="white"/>
</svg>
