<svg width="52" height="52" viewBox="0 0 52 52" fill="none" xmlns="http://www.w3.org/2000/svg">
<path d="M12.9189 10.7523C20.1436 3.52758 31.8571 3.52756 39.082 10.7523C46.3062 17.977 46.3065 29.6906 39.082 36.9154L27.4141 48.5824C26.6331 49.3631 25.3669 49.3631 24.5859 48.5824L12.9189 36.9154C5.69423 29.6905 5.69425 17.977 12.9189 10.7523Z" fill="#D54F4F" stroke="white" stroke-width="2"/>
<g clip-path="url(#clip0_20_5789)">
<path d="M27.6038 13C26.9536 13 24.2588 13 24.2588 13V14.9516C24.2588 14.9516 26.1176 14.9516 28.0688 14.9516C31.6929 14.9516 32.6218 16.7166 32.6218 16.7166C32.6218 16.7166 32.6218 16.7166 33.2721 16.2521C32.1574 13.3716 28.2549 13 27.6038 13Z" fill="white"/>
<path d="M20.0573 28.051L19.728 29.7122H21.9955L21.6662 28.051H20.0573Z" fill="white"/>
<path d="M27.2014 17.7285V16.0974C27.2014 15.766 26.9327 15.4973 26.6004 15.4973H25.4799C25.1472 15.4973 24.879 15.766 24.879 16.0974V17.7603C23.4714 18.2574 22.4621 19.5997 22.4621 21.1773V32.6066C22.4621 33.3762 23.0872 34.0001 23.8563 34.0001H28.3169C29.0868 34.0001 29.7103 33.3761 29.7103 32.6066V21.1773C29.7103 19.5646 28.6575 18.1988 27.2014 17.7285ZM28.0144 29.6792H24.158V24.9659H28.0144V29.6792Z" fill="white"/>
<path d="M21.2916 21.2412C21.2912 19.6544 22.1046 18.1999 23.3938 17.3555L23.398 17.3526L23.3984 17.353C23.4051 17.3467 23.6645 17.1835 24.0758 17.0438V16.1496C23.3955 16.3328 22.9657 16.6124 22.9243 16.6387C22.9239 16.6391 22.9239 16.6391 22.9239 16.6391C22.923 16.6395 22.9189 16.6421 22.9185 16.6425L22.9189 16.6429C21.3945 17.6438 20.435 19.3623 20.4346 21.2412V27.7563H21.2916V21.2412ZM23.4047 17.3484L23.3997 17.3522L23.3992 17.3517L23.4047 17.3484Z" fill="white"/>
</g>
<defs>
<clipPath id="clip0_20_5789">
<rect width="21" height="21" fill="white" transform="translate(15 13)"/>
</clipPath>
</defs>
</svg>
