<svg width="52" height="52" viewBox="0 0 52 52" fill="none" xmlns="http://www.w3.org/2000/svg">
<path d="M12.9189 10.7523C20.1436 3.52759 31.8571 3.52757 39.082 10.7523C46.3062 17.977 46.3065 29.6906 39.082 36.9154L27.4141 48.5824C26.6331 49.3631 25.3669 49.3631 24.5859 48.5824L12.9189 36.9154C5.69423 29.6905 5.69425 17.977 12.9189 10.7523Z" fill="#8964CB" stroke="white" stroke-width="2"/>
<path d="M15 21.7743L16.5711 23.3457C21.7699 18.1475 30.2301 18.1475 35.4285 23.3457L37 21.7743C30.9358 15.7101 21.0656 15.708 15 21.7743Z" fill="white"/>
<path d="M18.1429 24.9172L19.7139 26.4882C23.1807 23.0222 28.8204 23.0232 32.2857 26.4882L33.8572 24.9172C29.5247 20.5844 22.4753 20.5844 18.1429 24.9172Z" fill="white"/>
<path d="M21.2857 28.06L22.8572 29.6314C24.5904 27.8979 27.4094 27.8979 29.1429 29.6314L30.7144 28.06C28.1154 25.4608 23.8846 25.4608 21.2857 28.06Z" fill="white"/>
<path d="M24.4286 31.2029L26 32.7747L27.5711 31.2029C26.7037 30.3354 25.296 30.3354 24.4286 31.2029Z" fill="white"/>
</svg>
