<svg width="52" height="52" viewBox="0 0 52 52" fill="none" xmlns="http://www.w3.org/2000/svg">
<path d="M12.9189 10.7523C20.1436 3.52758 31.8571 3.52756 39.082 10.7523C46.3062 17.977 46.3065 29.6906 39.082 36.9154L27.4141 48.5824C26.6331 49.3631 25.3669 49.3631 24.5859 48.5824L12.9189 36.9154C5.69423 29.6905 5.69425 17.977 12.9189 10.7523Z" fill="#E59024" stroke="white" stroke-width="2"/>
<path d="M29.1516 26.7768L27.2306 28.7681C26.9429 29.0769 26.5371 29.2532 26.1166 29.2532C25.7315 29.2532 25.3645 29.1088 25.0821 28.8471C24.5059 28.3127 24.436 27.409 24.9226 26.79L25.5977 25.9393C24.8839 25.8577 24.1317 25.8137 23.3544 25.8137C18.7403 25.8137 14.9999 27.3537 14.9999 29.2532C14.9999 31.1528 18.7403 32.6928 23.3544 32.6928C27.9684 32.6928 31.7089 31.1528 31.7089 29.2532C31.7089 28.2807 30.7281 27.4026 29.1519 26.7768H29.1516Z" fill="white"/>
<path d="M30.8002 24.2424C31.1985 23.7994 31.8111 23.1059 32.2425 22.5606C32.5129 22.2188 32.6832 21.9228 32.7344 21.5181L32.0247 18.502L32.9104 18.5535L34.3286 20.4305C34.6024 20.7912 35.1142 20.8874 35.5008 20.6377C35.9062 20.3756 36.0224 19.8344 35.7599 19.429L34.2173 17.044C34.0649 16.8119 33.8058 16.648 33.5076 16.6307L33.4734 16.6288L31.5577 16.5178L30.3644 16.4505C29.619 16.4114 28.877 16.7205 28.1113 17.6333L26.8545 19.1233L24.4811 19.1537C24.1001 19.1583 23.7722 19.4448 23.7263 19.8333C23.6763 20.2556 23.9782 20.6385 24.4006 20.6885L27.255 21.0255C27.4618 21.0492 27.6807 20.9905 27.8514 20.8442L29.0041 19.8593L29.7401 21.6257L25.3656 27.1389C25.061 27.5267 25.0974 28.0923 25.4652 28.4338C25.8526 28.7933 26.4581 28.7707 26.8176 28.3834L30.7999 24.2428L30.8002 24.2424Z" fill="white"/>
<path d="M29.8472 15.5758C30.3136 14.7709 30.0392 13.7403 29.2342 13.2738C28.4293 12.8074 27.3987 13.0819 26.9323 13.8868C26.4659 14.6917 26.7403 15.7223 27.5452 16.1887C28.3501 16.6551 29.3808 16.3807 29.8472 15.5758Z" fill="white"/>
<path d="M36.1277 24.9148L33.6945 24.7855L32.9946 22.5625L32.9773 22.4892C32.898 22.6181 32.8066 22.7445 32.7047 22.8735C32.2007 23.5113 31.4764 24.3225 31.0932 24.7452L31.9578 26.3932C32.1315 26.723 32.4858 26.94 32.8829 26.9201L36.1255 26.7546C36.5892 26.7294 36.9731 26.3578 36.9983 25.8836C37.0254 25.3755 36.6354 24.9419 36.1273 24.9148H36.1277Z" fill="white"/>
</svg>
